<?xml version="1.0" encoding="UTF-8"?><svg id="Layer_2" xmlns="http://www.w3.org/2000/svg" viewBox="0 0 83.46 86.5"><defs><style>.cls-1{fill:#010101;}.cls-2{fill:#a0806a;}.cls-3{fill:#1d1d1c;}.cls-4{letter-spacing:-.2em;}.cls-5{fill:#f9efe1;stroke:#1d1d1b;stroke-miterlimit:10;}.cls-6{font-family:Superclarendon-Light, Superclarendon;font-size:9px;}.cls-6,.cls-7{fill:#1d1d1b;}.cls-7{font-family:Zapfino, Zapfino;font-size:4.91px;}</style></defs><g id="Layer_1-2"><g><g><path class="cls-3" d="M78.96,55.97h-14.08c-.16,0-.29-.13-.29-.29s.13-.29,.29-.29h14.08c.16,0,.29,.13,.29,.29s-.13,.29-.29,.29Z"/><path class="cls-3" d="M78.96,53.1h-10.44c-.16,0-.29-.13-.29-.29s.13-.29,.29-.29h10.44c.16,0,.29,.13,.29,.29s-.13,.29-.29,.29Z"/><path class="cls-3" d="M78.96,58.85h-14.83c-.16,0-.29-.13-.29-.29s.13-.29,.29-.29h14.83c.16,0,.29,.13,.29,.29s-.13,.29-.29,.29Z"/><path class="cls-3" d="M64.12,58.27c.14,0,.29,.12,.3,.28,0,.16-.12,.29-.28,.3"/></g><g><path class="cls-3" d="M18.28,55.97H4.2c-.16,0-.29-.13-.29-.29s.13-.29,.29-.29h14.08c.16,0,.29,.13,.29,.29s-.13,.29-.29,.29Z"/><path class="cls-3" d="M14.64,53.1H4.2c-.16,0-.29-.13-.29-.29s.13-.29,.29-.29H14.64c.16,0,.29,.13,.29,.29s-.13,.29-.29,.29Z"/><path class="cls-3" d="M19.03,58.85H4.2c-.16,0-.29-.13-.29-.29s.13-.29,.29-.29h14.83c.16,0,.29,.13,.29,.29s-.13,.29-.29,.29Z"/><path class="cls-3" d="M19.02,58.85c-.16,0-.28-.14-.28-.3,0-.16,.15-.28,.3-.28"/></g><g><circle class="cls-2" cx="41.73" cy="41.73" r="41.47" transform="translate(-17.28 41.73) rotate(-45)"/><path class="cls-2" d="M41.73,83.46C18.72,83.46,0,64.74,0,41.73S18.72,0,41.73,0s41.73,18.72,41.73,41.73-18.72,41.73-41.73,41.73ZM41.73,.51C19,.51,.51,19,.51,41.73s18.49,41.22,41.22,41.22,41.22-18.49,41.22-41.22S64.46,.51,41.73,.51Z"/></g><g><circle class="cls-5" cx="41.73" cy="41.73" r="38.06"/><path class="cls-5" d="M41.73,80.04C20.6,80.04,3.42,62.85,3.42,41.73S20.6,3.42,41.73,3.42s38.31,17.19,38.31,38.31-17.19,38.31-38.31,38.31Zm0-76.12C20.88,3.92,3.92,20.88,3.92,41.73s16.96,37.8,37.81,37.8,37.8-16.96,37.8-37.8S62.57,3.92,41.73,3.92Z"/></g><text class="cls-6" transform="translate(24.66 61.72)"><tspan x="0" y="0">CR</tspan><tspan class="cls-4" x="14.21" y="0">A</tspan><tspan x="20.33" y="0">VE</tspan></text><text class="cls-7" transform="translate(31.22 71.1)"><tspan x="0" y="0">GIN</tspan></text><path class="cls-1" d="M30.66,22.6c-.02-.2-.14-.33-.26-.45-.65-.67-1.26-1.38-2.1-1.84-.29-.16-.64-.33-.71-.74-.06-.35,.06-.58,.39-.71,.44-.17,.86-.05,1.26,.1,1,.37,1.98,.79,2.79,1.52,.19,.17,.2,.16,.25-.11,.16-.86,.43-1.68,.83-2.47,.48-.96,1.18-1.72,1.98-2.4,1.71-1.46,3.69-1.86,5.88-1.37,1.99,.44,3.56,1.93,4.17,3.96,.29,.98,.75,1.9,.95,2.91,0,.02,0,.04,.02,.06,.05,.09,.13,.18,.22,.13,.08-.04,0-.13-.02-.2-.39-.94-.6-1.93-.75-2.93-.16-1.07-.25-2.79,.56-3.62,.63-.64,1.06,.37,1.2,.87,.21,.71,.41,1.43,.54,2.16,.02,.1,.02,.27,.13,.27,.13,0,.12-.16,.14-.25,.08-.4,.26-.78,.39-1.16,.11-.35,.35-.59,.63-.8,.11-.08,.23-.13,.36-.06,.21,.11,.24-.02,.25-.18,.02-.56,.06-1.12,.15-1.67,.08-.53,.17-1.06,.26-1.59,.04-.22,.11-.44,.23-.64,.3-.49,.81-.5,1.13-.01,.22,.34,.38,.69,.43,1.1,.15,1.2,.15,2.41,.04,3.61-.05,.51-.1,1.03-.14,1.54-.02,.24,.14,.44,.14,.68,0,.1,.12,.03,.17-.01,.26-.25,.6-.45,.82-.72,.53-.68,1.23-1.17,1.87-1.72,.37-.32,.75-.62,1.1-.95,.52-.49,1.16-.78,1.79-1.08,.24-.12,.46,0,.59,.28,.14,.3,.15,.62,.03,.91-.39,.97-.87,1.88-1.69,2.56-.6,.49-1.21,.97-1.81,1.46-.13,.1-.36,.23-.26,.39,.11,.18,.29-.03,.41-.09,1.61-.82,3.31-1.4,5.05-1.87,.57-.15,1.16-.1,1.74-.09,.2,0,.29,.3,.18,.52-.06,.12-.16,.2-.26,.28-.7,.6-1.5,1.06-2.2,1.65-1.12,.95-2.47,1.48-3.75,2.13-.23,.12-.49,.17-.73,.25-.12,.04-.25,.05-.36,.19,.24,.05,.45-.01,.64-.07,.86-.23,1.74-.43,2.5-.93,.17-.11,.37-.18,.56-.25,.46-.18,.91,.2,.84,.69-.07,.5-.43,.81-.77,1.11-.48,.42-1,.78-1.53,1.14-.05,.03-.14,.05-.12,.13,.02,.08,.11,.05,.17,.05,.29-.02,.58-.06,.87-.07,.21,0,.46-.05,.57,.2,.1,.24-.09,.39-.22,.56-.39,.48-.93,.72-1.48,.94-.98,.38-2.02,.52-3.06,.63-.14,.01-.36-.05-.4,.1-.04,.12,.17,.2,.27,.29,.59,.48,1.12,1,1.68,1.52,.16,.14,.3,.32,.41,.5,.82,1.3,1.43,2.68,1.62,4.22,.09,.75,.11,1.5,.03,2.26-.04,.39-.18,.75-.39,1.08-.12,.18-.11,.28,.12,.33,.48,.12,.95,.27,1.43,.4,1.02,.26,1.88,.79,2.63,1.51,.17,.16,.32,.33,.2,.59-.08,.19-.42,.36-.66,.34-.15-.02-.3-.04-.44-.08-.68-.18-1.39-.16-2.16-.2,.16,.13,.3,.17,.43,.22,1.36,.5,2.66,1.11,3.95,1.76,.51,.25,.93,.6,1.26,1.07,1.36,1.99-2.92,.58-3.26,.5-1.15-.27-2.28-.63-3.4-1.01-.13-.04-.34-.16-.4,0-.06,.16,.18,.2,.3,.27,.14,.08,.29,.14,.44,.2,1.58,.55,2.82,1.58,3.96,2.76,.4,.41,.44,.89,.38,1.39-.05,.42-.27,.51-.69,.41-.98-.25-1.83-.73-2.66-1.28-.62-.41-1.32-.69-1.9-1.15-.47-.38-.99-.68-1.48-1.02-.06-.04-.12-.11-.2-.06-.06,.04-.02,.12-.02,.18-.1,.7,.2,1.33,.35,1.97,.28,1.15,.5,2.31,.55,3.5,.02,.44-.03,.86-.21,1.26-.07,.15-.15,.29-.28,.39-.26,.21-.55,.19-.77-.06-.19-.21-.32-.46-.41-.73-.35-1.02-.75-2.02-.94-3.09-.03-.18-.07-.33-.3-.16-.11,.08-.24,.04-.37-.02-.29-.15-.54-.34-.71-.63-.13-.24-.17-.23-.31,.01-.37,.65-.88,1.2-1.3,1.81-.07,.1-.14,.2-.24,.26-.77,.56-1.52,1.14-2.44,1.43-1.07,.34-2.15,.6-3.28,.7-.93,.09-1.82-.11-2.71-.34-.19-.05-.36-.19-.52-.3-.61-.42-1.33-.66-1.96-1.06-.16-.1-.21,0-.26,.12-.14,.32-.32,.61-.5,.9-.21,.34-.51,.55-.87,.7-.31,.13-.56,0-.65-.32-.1-.35-.14-.72-.03-1.09-.25,.19-.39,.46-.54,.71-.47,.74-1.12,1.3-1.77,1.87-.23,.2-.47,.23-.65,.1-.2-.14-.26-.38-.14-.67,.29-.64,.59-1.27,.89-1.9,.13-.29,.35-.87,.45-1.18-.69,.56-2.07,1.07-2.91,1.12-.57,.03-1.15,.11-1.71,0-.87-.18-2.18-.6-3.16-1.3-.78-.56-1.41-1.52-1.8-2.41-.6-1.36-.61-3.79-.07-5.19,1.11-2.86,3.55-4.49,6.23-5.65,.25-.11,.53-.18,.81-.23,.23-.04,.32-.15,.32-.36,0-.15,.13-.34,.01-.43-.1-.08-.23,.11-.35,.17-.39,.19-.8,.24-1.22,.26-.18,0-.34-.08-.46-.2-.15-.13-.28-.13-.43-.03-.55,.35-1.18,.37-1.81,.41-.05,0-.11,0-.16,0-.58-.08-.76-.43-.49-.94,.11-.21,.27-.39,.44-.56,.53-.53,1.05-1.06,1.62-1.53,.02-.02,.05-.04,.07-.06,.06-.07,.19-.12,.14-.23-.04-.08-.16-.02-.24,0-.42,.13-.87,.16-1.3,.25-.36,.07-.68-.05-1-.19-.13-.06-.19-.17-.2-.31,0-.17-.1-.17-.22-.11-.26,.13-.52,.26-.78,.38-.76,.35-1.57,.58-2.36,.87-.19,.07-.4,.1-.6,.11-.57,.02-.84-.4-.61-.92,.21-.46,.55-.8,.96-1.1,1.26-.91,2.65-1.56,4.08-2.15,.32-.14,.52-.4,.8-.57,.11-.07,.03-.13-.05-.15-.37-.12-.72-.33-1.09-.39-.78-.12-1.49-.44-2.21-.72-.48-.19-.97-.37-1.46-.53-.7-.23-1.29-.64-1.88-1.05-.25-.17-.26-.42-.06-.7,.25-.34,.62-.46,1.02-.5,.58-.05,1.16-.04,1.74,.02,.51,.05,1.03,.11,1.54,.16,.04,0,.11,0,.12-.02,.03-.06-.03-.09-.07-.12-.59-.52-1.22-.99-1.85-1.46-.42-.31-.78-.67-1.09-1.09-.3-.42-.19-.73,.29-.93,.7-.29,1.37-.12,2.05,.04,1.18,.28,2.24,.82,3.21,1.55,.69,.52,1.45,.94,2.04,1.58h0Zm20.59-.72h0c-.11,.08-.11,.2-.11,.32,0,.14-.02,.28-.04,.42-.01,.08-.03,.2-.13,.19-.12-.01-.08-.13-.08-.21-.03-1.75,.07-3.49,.26-5.22,.04-.34,.06-.68,.08-1.04-.09,.04-.07,.12-.1,.17-.04,.06-.05,.16-.15,.13-.07-.02-.04-.11-.05-.17-.07-.43,0-.86,.05-1.28,0-.09,.01-.22,.14-.21,.14,0,.11,.14,.11,.23,0,.25-.04,.51,.02,.81,.06-.07,.09-.1,.12-.14,.15-.21,.08-.46,.09-.69,.06-1.04-.01-2.07-.13-3.09-.02-.15-.04-.33-.23-.34-.16,0-.23,.16-.26,.29-.5,2.25-.58,4.53-.67,6.85-.04,1.02-.1,2.04,0,3.07,.01,.11,.03,.24-.08,.3-.15,.08-.19,.21-.22,.42-.15-.23-.29-.39-.32-.61-.02-.15-.07-.29-.18-.41-1.39-1.39-1.96-3.21-2.39-5.07-.1-.42-.22-.83-.44-1.21-.06-.09-.08-.26-.22-.23-.12,.02-.13,.18-.16,.3-.01,.06-.02,.13-.03,.19-.33,1.87,.1,4.27,1.18,5.84,.19,.27,.4,.53,.59,.8,.31,.44,.72,.7,1.19,.89,.15,.06,.19,.12,.08,.25-.14,.16-.27,.34-.41,.5-.13,.16-.1,.28,.04,.42,.17,.16,.29,.08,.41-.05,.04-.05,.08-.1,.12-.15,.43-.57,.95-.72,1.61-.47,.38,.14,.76,.23,1.17,.19,.11-.01,.21-.01,.32,.03,.05,.02,.1,.05,.1,.11,0,.06-.06,.08-.12,.08-.46-.01-.93,.08-1.38-.04-.11-.03-.23-.02-.34-.09-.33-.22-.37-.22-.65,.06-.1,.1-.32,.18-.27,.33,.06,.17,.28,.15,.46,.16,.25,.02,1.49,.15,2.72,.06,1.29-.09,2.58-.41,2.82-.54,1.13-.61,2.06-1.09,2.69-2.22,.02-.04,.03-.08,0-.12-.04-.04-.08-.02-.12,0-.05,.03-.1,.05-.14,.09-.68,.58-1.49,.82-2.36,.95-.93,.14-1.84,.34-2.76,.51-.45,.08-.9,.09-1.34-.06-.12-.04-.28-.02-.36-.13-.12-.16,.1-.2,.14-.31,0-.02,.01-.04,.01-.06-.01-.22,.14-.24,.3-.25,.37-.03,.72-.12,1.08-.21,.66-.15,1.29-.43,1.92-.66,1.2-.43,2.37-.92,3.38-1.73,.21-.17,.44-.32,.68-.43,.66-.31,1.22-.77,1.82-1.16,.04-.03,.08-.07,.12-.11,.05-.06,.07-.13,.03-.21-.04-.08-.12-.08-.2-.06-.12,.03-.25,.06-.37,.11-2.34,.84-4.66,1.74-6.94,2.73-.59,.26-1.19,.5-1.77,.8-.18,.09-.34,.2-.34,.42h0Zm-11.36-.21h.02c.86-.57,1.78-.91,2.82-.91,.62,0,1.22,.14,1.81,.28,.3,.07,.32,.06,.33-.23,.02-.56-.06-1.12-.19-1.66-.6-2.54-2.55-4.22-4.87-4.41-1.1-.09-2.51,0-3.48,.76-.08,.06-.16,.11-.24,.16-1.47,.87-2.34,2.18-2.75,3.82-.02,.06-.04,.13,.03,.17,.17,.11,.46,0,.52-.21,.12-.35,.25-.69,.37-1.03,.04-.1,.08-.2,.19-.25,.09-.04,.18-.14,.26-.08,.1,.06,.02,.17,0,.26-.14,.58-.21,1.16-.24,1.75,0,.15,.09,.24,.18,.33,.09,.09,.15,.06,.18-.06,.02-.12,.04-.23,.06-.35,.01-.07,.05-.12,.13-.12,.06,0,.11,.05,.1,.1,0,.2,.13,.36,.16,.55,.19,1.24,.91,2.16,1.8,2.98,.09,.08,.19,.19,.33,.05,.13-.14,.04-.24-.05-.33-.17-.19-.34-.39-.39-.66-.02-.12-.13-.27,.02-.35,.14-.06,.18,.11,.25,.19,.19,.22,.37,.45,.59,.64,.06,.06,.14,.11,.23,.08,.11-.04,.05-.15,.08-.22,.06-.18-.09-.25-.17-.36-.09-.11-.19-.24-.07-.37,.13-.14,.26-.02,.36,.07,.28,.25,.28,.25,.58,.05,.09-.06,.17-.14,.25-.2h0c.29-.1,.57-.24,.79-.46h0Zm-7.27,9.67h0c-.28,.19-.44,.51-.71,.7-.36,.26-.55,.65-.83,.98-.04,.05-.1,.1-.06,.17,.04,.07,.11,.04,.18,.03,.25-.03,.47-.14,.68-.28,.63-.44,1.2-.95,1.7-1.53,.09-.1,.17-.24,.31-.27,.16-.03,.26-.14,.36-.25,.57-.59,1.14-1.18,1.72-1.75,.11-.11,.13-.2,.09-.34-.12-.42-.17-.85-.12-1.28,.06-.55-.02-1.09-.08-1.64-.15-1.33-.51-2.57-1.42-3.6-.16-.18-.28-.41-.41-.62-.04-.06-.1-.12-.05-.2,.02,0,.05,0,.06,0,.03,.02,.05,.04,.07,.06,.68,.84,1.37,1.66,1.67,2.73,.08,.29,.19,.57,.25,.87,0,.05,0,.13,.06,.14,.09,.01,.08-.08,.1-.14,.05-.15,.13-.29-.03-.44-.05-.05-.06-.16-.06-.24,0-.39-.15-.74-.34-1.07-.54-.97-1.13-1.91-1.94-2.68-.04-.04-.07-.09-.09-.13-.03-.08-.06-.17-.18-.15-.1,.02-.17,.09-.18,.2-.02,.18,0,.36,.06,.54,.22,.7,.6,1.31,.97,1.93,.29,.47,.52,.97,.57,1.53,.04,.53,.11,1.05,.45,1.49,.1,.14,.19,.29,.28,.43,.05,.08,.06,.16-.02,.24-.07,.07-.16,.06-.24,.02-.1-.05-.17-.14-.22-.23-.06-.1-.14-.16-.26-.17-.41-.05-.79-.19-1.13-.44-.07-.05-.11-.02-.17,0-.24,.09-.34,.02-.32-.24,.01-.17,0-.35,.14-.48,.08-.07,.06-.16,.03-.24-.08-.3-.15-.61-.34-.87-.06-.08-.1-.19-.14-.29-.03-.07-.05-.15,.03-.2,.08-.05,.14,.01,.19,.07,.13,.16,.29,.3,.38,.48,.18,.36,.37,.73,.27,1.16-.04,.17,0,.32,.19,.39,.11,.04,.22,.09,.33,.12,.1,.02,.2,.14,.29,.02,.07-.09,.02-.21,0-.31-.18-.56-.35-1.13-.66-1.64-.38-.62-2.12-2.92-2.74-3.26-.56-.31-1.12-.6-1.68-.9-.32-.17-.66-.28-1.02-.24-.14,.01-.37-.08-.41,.07-.04,.16,.2,.19,.33,.25,.58,.26,1.08,.61,1.48,1.11,.67,.84,1.38,1.65,2.05,2.49,.32,.4,.59,.82,.68,1.33,.07,.36,.08,.35-.27,.36-.03,0-.06,.01-.09,.03-.16,.1-.26,.02-.34-.12-.21-.36-.5-.64-.79-.94-.67-.7-1.45-1.28-2.19-1.91-1.25-1.06-2.7-1.72-4.27-2.13-.33-.09-.66-.09-.99,0-.27,.07-.28,.11-.1,.33,.29,.34,.66,.55,1.02,.78,.75,.49,1.49,.98,2.26,1.44,.36,.22,.7,.45,1.02,.74,.27,.25,.54,.5,.83,.72,.72,.55,1.33,1.23,2.14,1.66,.04,.02,.07,.05,.1,.09,.04,.04,.06,.09,.02,.14-.04,.04-.08,.01-.12-.01-.57-.41-1.22-.69-1.78-1.11-1.1-.82-1.76-1.01-2.28-1.16-.61-.17-1.04-.24-2.22-.34-.71-.06-1.41-.16-2.12-.04-.18,.03-.35,.09-.52,.17-.16,.08-.19,.16,0,.26,.37,.21,.72,.44,1.11,.6,1.87,.78,3.95,1.14,5.59,1.85,.58,.25,1.14,.57,1.74,.76,.11,.03,.19,.05,.25-.05,.18-.31,.48-.52,.63-.87,.07-.17,.07-.23-.1-.32-.42-.23-.79-.52-1.16-.82-.08-.06-.14-.15-.05-.25,.08-.08,.16-.02,.23,.03,.38,.31,.83,.55,1.13,.95,.11,.16,.2,.06,.29,0,.15-.11,0-.16-.05-.22-.5-.46-.99-.93-1.51-1.36-1.24-1.01-2.65-1.77-3.93-2.72-.25-.19-.52-.34-.78-.51-.08-.05-.21-.12-.17-.21,.07-.12,.19-.02,.28,.02,.15,.06,.29,.14,.43,.22,.7,.38,1.32,.89,2,1.31,1.44,.88,2.77,1.91,3.97,3.08,.15,.15,.3,.28,.02,.45-.08,.05-.14,.18-.15,.28-.03,.2-.15,.35-.26,.51-1.1,1.51-1.92,2.54-3.38,3.55-.05,.04-.15,.04-.13,.15,.06,.03,.11,0,.16,0,1-.15,1.86-.67,2.75-1.09,.12-.06,.21-.16,.26-.28,.28-.78,.9-1.31,1.37-1.94,.14-.19,.46-.19,.63-.04,.08,.07,.11,.16,.07,.26-.03,.09-.1,.13-.2,.12-.1-.02-.19-.19-.31-.03-.07,.09-.18,.19-.19,.29-.08,.55-.43,.98-.67,1.46-.14,.29-.23,.6-.41,.86-.58,.85-1.35,1.53-2.12,2.21-.35,.31-.68,.62-.92,1.03-.06,.11-.21,.22-.11,.33,.09,.1,.24,.03,.36-.02,.03-.01,.06-.02,.09-.03,1.04-.34,1.88-1.03,2.79-1.6,.36-.22,.58-.56,.81-.9,.31-.44,.67-.83,.94-1.3,.25-.43,.37-.91,.61-1.35,.06-.11,.05-.23,.06-.35,.02-.36,.01-.71-.06-1.06-.02-.08-.02-.18,.09-.21,.09-.02,.14,.04,.18,.11,.31,.61,.38,1.24,.11,1.87-.23,.51-.53,.98-.79,1.48-.12,.23-.23,.46-.51,.55-.06,.02-.11,.1-.15,.16-.11,.21-.21,.42-.32,.63h0Zm5.92,9.81c-1.36-.14-2.4-.89-3.32-1.83-.11-.11-.32-.27-.16-.43,.16-.16,.34,.02,.45,.16,.94,1.11,2.23,1.46,3.61,1.59,1.47,.13,2.59-.26,3.8-.97,1.04-.61,1.71-1.52,2.15-2.62,.12-.3,.26-.59,.3-.92,.1-.71-.04-1.42-.02-2.13,0-.1-.03-.2-.16-.18-.12,.01-.17,.09-.16,.2,.01,.11,.02,.21,.03,.32,.05,.59,.05,1.19-.13,1.76-.27,.84-.67,1.63-1.21,2.34-.27,.35-.62,.6-1,.8-.08,.04-.17,.07-.24-.01-.05-.05-.04-.13,0-.18,.17-.16,.23-.39,.38-.55,.5-.54,.83-1.16,1.06-1.86,.27-.83,.28-1.67,.33-2.52,0-.14-.07-.18-.2-.19-.2-.01-.21,.11-.22,.27-.03,.48-.08,.97-.41,1.36-.07,.08-.13,.2-.25,.16-.16-.06-.08-.21-.05-.31,.08-.31,.11-.64,.16-.95,.04-.24-.08-.42-.18-.6-.05-.09-.16-.11-.26-.08-.1,.03-.08,.12-.08,.19,0,.22,.01,.43-.05,.64-.04,.15-.09,.32-.27,.3-.21-.02-.22-.21-.21-.37,0-.17,.05-.34,.05-.51,0-.38-.01-.38-.37-.48-.46-.13-.93-.2-1.37-.37-.78-.3-1.47-.74-2.15-1.22-.87-.61-1.47-1.41-2-2.29-.17-.28-.17-.29-.4-.05-.63,.67-1.29,1.3-1.93,1.95-.24,.24-.44,.53-.58,.84-.29,.67-.4,3.21-.25,3.86,.29,1.26,.96,2.32,1.66,3.36,.41,.61,1.08,.94,1.7,1.31,.7,.41,1.48,.64,2.29,.76,.71,.1,1.44,.27,2.15,.08,1.71-.46,3.25-1.21,4.51-2.52,1.33-1.37,1.35-3.12,1.31-4.92-.01-.56-.15-1.03-.28-1.14-.12-.1-.21-.06-.31,.01-.11,.08-.16,.14-.1,.29,.16,.43,.21,.88,.16,1.34-.1,.82-.29,1.63-.51,2.43-.17,.64-.62,1.13-.93,1.69-1.11,1.97-4.18,2.42-6.34,2.2h0Zm4.15-19.5h0c-2.57-.1-4.89,1.63-5.79,4-.27,.7-.27,1.43-.3,2.16-.02,.6,.14,1.15,.45,1.66,.19,.3,.39,.6,.6,.88,.6,.78,1.42,1.3,2.24,1.81,.77,.48,1.67,.61,2.52,.86,.76,.22,1.45,.06,2.17-.12,1.09-.28,1.98-.87,2.77-1.65,.11-.11,.2-.25,.3-.38,.24-.33,.31-.71,.43-1.09,.33-1.07,.46-2.16,.46-3.27,0-.56-.14-1.12-.39-1.62-.41-.8-.97-1.5-1.62-2.12-.3-.29-.64-.5-1.04-.63-.92-.31-1.86-.55-2.81-.5h0Zm-17.13,23.05c.73,2.02,3.78,3.69,5.83,3.53,.23-.02,.45-.05,.67-.08,1.2-.18,2.29-.56,3.09-1.55,.04-.05,.09-.09,.15-.13,.07-.06,.15-.14,.09-.21-.08-.1-.15,0-.21,.06-.48,.39-1.02,.68-1.59,.92-.55,.23-1.1,.42-1.71,.44-.89,.03-1.76-.11-2.59-.43-.22-.09-.44-.18-.61-.35-.05-.05-.09-.1-.06-.17,.03-.07,.1-.06,.16-.08,.27-.04,.51,.06,.75,.13,1.47,.43,2.9,.42,4.28-.35,.61-.34,1.13-.78,1.7-1.17,.08-.06,.13-.14,.17-.23,.02-.05,.08-.12,.01-.17-.05-.03-.1,.02-.14,.05-.31,.21-.62,.43-.93,.64-.27,.18-.58,.29-.9,.33-.11,.01-.22,0-.27-.13-.05-.13,.03-.21,.13-.26,.59-.3,1.07-.76,1.62-1.11,.5-.32,.88-.75,1.04-1.35,.03-.12,.11-.21,.15-.32,.09-.26,.35-.41,.41-.68,.02-.09,.1-.18-.04-.24-.13-.06-.13,.06-.17,.13-.14,.22-.31,.41-.5,.59-.08,.07-.18,.14-.29,.07-.13-.08-.1-.2-.06-.32,.08-.23,.23-.41,.4-.58,.07-.06,.14-.13,.03-.21-.34-.24-.69-.48-1.04-.71-.06-.04-.15-.1-.17,.03-.07,.42-.43,.47-.73,.58-.12,.05-.26,.02-.34-.12-.07-.13,.02-.23,.11-.31,.18-.16,.38-.29,.61-.36,.17-.05,.15-.1,.05-.21-.12-.13-.25-.25-.32-.4-.13-.25-.26-.21-.45-.07-.19,.15-.4,.26-.63,.32-.14,.04-.29,.07-.37-.09-.08-.16,.06-.23,.17-.3,.22-.15,.44-.32,.67-.45,.18-.1,.14-.21,.05-.34-.08-.13-.15-.22-.33-.1-.22,.15-.47,.26-.71,.38-.12,.06-.26,.1-.34-.05-.08-.14,0-.24,.11-.34,.19-.17,.41-.32,.64-.43,.14-.06,.16-.14,.11-.28-.13-.36-.25-.73-.37-1.1-.18-.56-.38-1.13-.36-1.73,0-.2-.08-.24-.26-.19-.2,.06-.4,.07-.61,.08-.33,0-.64,.1-.91,.28-2.18,1.47-3.92,1.7-5.09,4.69-.4,1.02-.5,3.35-.09,4.46h0Zm30.78-11.27h0c.09-.54-.11-1.09-.19-1.65-.09-.6-.41-1.07-.68-1.59-.63-1.21-1.61-2.02-2.78-2.66-.47-.26-.97-.46-1.43-.75-.23-.14-.46-.15-.71-.12-.06,0-.14,0-.15,.08,0,.06,.07,.07,.12,.1,.78,.47,1.64,.78,2.43,1.26,.59,.36,1.08,.82,1.53,1.32,.49,.54,.85,1.18,1.04,1.91,.26,.95,.49,1.9,.24,2.89-.11,.44-.07,.91-.32,1.31-.39,.63-.81,1.25-1.42,1.7-.14,.1-.32,.25-.46,.11-.15-.16,.04-.31,.16-.42,.31-.29,.58-.6,.79-.97,.24-.41,.43-.84,.6-1.29,.16-.42,.26-.86,.29-1.31,.04-.63-.17-1.22-.36-1.8-.43-1.37-1.34-2.38-2.53-3.16-.3-.2-.65-.18-.96-.35-.63-.35-1.34-.46-2.02-.65-.05-.01-.13-.04-.14,.02-.02,.09,.07,.09,.13,.11,.38,.16,.75,.32,1.13,.48,.36,.16,.67,.38,.98,.62,.09,.06,.12,.16,.06,.26-.07,.1-.15,.04-.22,0-.59-.4-1.31-.48-1.95-.74-.08-.03-.16-.06-.23,.04-.15,.24-.04,.59,.21,.7,.16,.07,.4,.13,.32,.37-.09,.27-.32,.15-.49,.07-.17-.08-.23,0-.27,.15-.06,.22-.04,.4,.16,.54,.1,.07,.16,.18,.1,.31-.04,.1-.13,.09-.22,.09-.31,0-.47,.3-.32,.58,.1,.18,.06,.31-.14,.32-.22,0-.3,.12-.38,.28-.07,.13-.16,.26-.26,.37-.17,.19-.2,.4-.17,.63,.03,.22,.08,.45,.1,.67,.02,.17,.08,.28,.23,.36,.2,.1,.39,.23,.53,.41,.08,.1,.11,.21,.03,.33-.08,.11-.19,.12-.32,.08-.37-.1-.37-.1-.36,.29,0,.06,.01,.13,0,.19-.05,.28,.09,.44,.33,.55,.21,.09,.41,.19,.61,.3,.1,.05,.23,.12,.18,.27-.05,.15-.18,.12-.3,.09-.18-.04-.36-.09-.52-.17-.34-.16-.41-.11-.41,.28,0,.15,.08,.22,.2,.3,.21,.14,.2,.25,0,.38-.29,.18-.28,.52,.02,.68,.68,.34,1.4,.57,2.17,.52,.72-.04,1.44-.08,2.12-.37,.17-.07,.34-.05,.51-.04,.06,0,.14,0,.16,.08,.02,.07-.03,.12-.08,.16-.07,.06-.13,.11-.2,.16-.26,.18-.58,.23-.87,.33-1.18,.4-2.36,.41-3.54-.05-.21-.08-.42-.16-.62-.26-.19-.1-.4-.05-.6-.06-.13-.01-.17,.11-.09,.23,.06,.08,.15,.12,.24,.16,.25,.1,.49,.22,.73,.33,.42,.19,.86,.37,1.33,.36,.45-.01,.9,.01,1.35-.02,.56-.03,1.13-.07,1.64-.3,1.18-.52,2.27-1.19,2.98-2.32,.59-.93,1.08-1.89,.97-3.09h0Zm-16.44,10.98h0c-.18,.47-.15,.76,.03,1.12,.16,.31,.4,.56,.54,.88,.04,.09,.11,.17,.01,.26-.1,.08-.21,.05-.3-.02-.18-.15-.35-.31-.5-.5-.07-.09-.12-.27-.24-.21-.1,.05-.09,.23-.07,.36,.02,.19,.15,.3,.28,.42,.21,.2,.48,.34,.64,.58,.08,.12,.17,.19,.28,.25,.5,.27,.99,.57,1.5,.82,.11,.05,.33,.08,.26,.26-.06,.16-.25,.06-.38,.05-.12-.01-.24-.03-.34-.09-.29-.17-.6-.28-.89-.46-.42-.26-.86-.49-1.29-.73-.05-.03-.11-.09-.17-.02-.06,.07-.05,.14,0,.21,.07,.08,.15,.16,.23,.23,.28,.24,.59,.44,.91,.62,.42,.24,.81,.54,1.28,.67,.41,.11,.82,.21,1.21,.35,.32,.12,.66,.14,.99,.11,.52-.06,1.05-.09,1.57-.19,2.27-.42,3.95-1.63,4.99-3.69,.29-.58,.59-1.14,.63-1.81,.05-.69,.06-1.38,.1-2.06,0-.14,0-.3-.08-.41-.16-.21-.21-.47-.32-.7-.16-.35-.39-.65-.81-.71-.06,0-.14-.03-.18,.03-.04,.06,0,.12,.04,.18,.12,.18,.18,.39,.27,.58,.26,.58,.24,1.22,.36,1.83,.12,.59,.05,1.16-.13,1.72-.41,1.3-1.13,2.41-2.22,3.26-.53,.42-1,.93-1.68,1.12-1.04,.3-2.1,.45-3.19,.4-.09,0-.19-.03-.28-.07-.08-.03-.2-.04-.2-.13,0-.12,.14-.1,.23-.12,.49-.11,.99-.02,1.48-.12,1.55-.32,2.93-.93,3.91-2.23,.33-.43,.74-.82,.88-1.38,.06-.22,.11-.44,.18-.65,.35-1.02,.3-2.03,.03-3.05-.15-.54-.16-.53-.75-.74,.29,.76,.47,1.52,.52,2.31,.03,.45-.06,.88-.23,1.29-.03,.08-.09,.16-.19,.14-.09-.02-.11-.1-.1-.18,.04-.25-.08-.48-.08-.73,0-1.35-.5-2.51-1.4-3.51-.06-.07-.14-.13-.22-.18-.06-.04-.14-.06-.21,0-.06,.06-.07,.13-.03,.21,.04,.09,.08,.18,.14,.25,.19,.25,.22,.53,.22,.83,0,.1-.01,.21-.13,.23-.11,.02-.14-.09-.17-.16-.15-.31-.34-.6-.53-.89-.09-.14-.2-.25-.38-.27-.11-.01-.19,0-.26,.09-.08,.1-.03,.18,.04,.26,.5,.59,.86,1.25,1.1,1.99,.26,.79,.16,1.49-.32,2.15-.03,.04-.06,.07-.1,.06-.06-.01-.05-.06-.04-.1,.16-.48,.08-.97,.03-1.44-.05-.45,.03-.98-.46-1.29-.06-.04-.09-.12-.12-.19-.12-.22-.23-.44-.35-.65-.13-.24-.26-.26-.45-.07-.12,.12-.08,.2,.01,.3,.42,.43,.59,.96,.6,1.55,0,.12,0,.27-.16,.27-.13,0-.14-.14-.16-.25-.02-.18,0-.38-.13-.52-.21-.24-.4-.5-.59-.77-.04-.06-.08-.09-.16-.06-.3,.11-.47,.4-.38,.71,.03,.1,.09,.2,.14,.29,.1,.16,.07,.31,0,.46-.08,.17-.25,.18-.36,.02-.06-.09-.08-.2-.11-.3-.05-.19-.09-.37-.19-.54-.09-.15-.17-.12-.29-.06-.21,.12-.12,.3-.07,.46,.06,.19,.16,.38,.17,.59,0,.13-.02,.25-.15,.29-.13,.04-.21-.05-.26-.15-.14-.28-.37-.46-.59-.66-.16-.15-.31-.1-.48-.07-.18,.03-.2,.19-.21,.32-.02,.21,0,.43,.08,.64,.05,.16,0,.26-.17,.31-.21,.06-.31-.03-.35-.22-.05-.2,0-.38,.06-.57,.04-.1,.08-.26-.06-.31-.15-.05-.27,.03-.3,.2-.02,.13-.08,.25-.04,.38,.06,.17,0,.34-.04,.51-.03,.12-.07,.24-.23,.22-.13-.01-.16-.12-.18-.23-.04-.24-.03-.47-.04-.71,0-.08,.06-.23-.08-.24-.1,0-.09,.13-.1,.21-.08,.36-.15,.72-.22,1.08-.02,.11-.17,.31,.14,.25,.06-.01,.09,.09,.1,.15,.02,.21,.13,.37,.27,.5,.14,.13,.11,.3,.12,.45,.01,.14-.08,.16-.2,.1-.1-.05-.16-.14-.22-.23-.13-.2-.21-.42-.31-.69h0Zm12.46-.05h0c-.02-.36,.14-.7,.16-1.05,.05-.88,.27-1.72,.49-2.57,.05-.2,.08-.39,.25-.55,.07-.06,.14-.18,.12-.29-.04-.25,.09-.28,.28-.25,.96,.15,1.92,.27,2.85,.54,.94,.27,1.87,.59,2.8,.89,.53,.17,1.07,.33,1.59,.54,.19,.07,.38,.16,.55,.26,.05,.03,.09,.07,.05,.13-.02,.03-.08,.03-.12,.03-.04,0-.08-.02-.12-.03-.89-.34-1.82-.53-2.71-.85-1.53-.55-3.08-.96-4.7-1.14-.1-.01-.25-.11-.29,.08-.03,.17,.1,.2,.24,.23,.44,.11,.88,.22,1.31,.35,1.12,.33,2.25,.67,3.37,1.02,1.16,.37,2.35,.64,3.46,1.15,.24,.11,.5,.2,.77,.24,.62,.1-.34-.97-.62-1.13-.24-.14-.49-.27-.74-.39-.7-.33-1.41-.64-2.12-.97-1.71-.79-3.51-1.14-5.39-1.13-.13,0-.27,.01-.32-.15-.06-.19-.14-.12-.23-.04-.13,.12-.22,.26-.27,.43-.02,.06,0,.14-.07,.17-.25,.09-.26,.32-.32,.52-.23,.82-.37,1.66-.44,2.51,0,.1,0,.25-.15,.24-.1,0-.08-.14-.07-.22,.12-.96,.17-1.93,.44-2.87,.03-.09,.06-.19,.08-.28,.01-.05,.03-.1-.04-.13-.12-.04-.38,.13-.37,.25,.01,.24-.07,.47-.11,.7-.08,.43-.24,.86-.21,1.3,.04,.54,.02,1.08-.04,1.61-.07,.59,.05,1.11,.27,1.63,.08,.19,.13,.39,.2,.58,.03,.07,.07,.14,.16,.13,.1-.01,.14-.1,.14-.19,0-.07-.01-.15-.02-.22-.03-.36-.07-.73-.1-1.09h0Zm-1.15-23.81h0c0,.14-.02,.28-.03,.42,0,.08,0,.16,.07,.2,.07,.03,.1-.05,.15-.09,.37-.29,.73-.6,1.11-.88,.93-.68,1.84-1.38,2.71-2.14,.43-.38,.86-.75,1.28-1.13,.51-.46,.89-1.05,1.24-1.64,.16-.27,.27-.56,.27-.89,0-.15-.05-.24-.21-.14-.48,.29-.97,.56-1.39,.93-.6,.54-1.2,1.08-1.82,1.59-.07,.05-.14,.11-.19,.18-.68,.9-1.5,1.66-2.44,2.28-.49,.33-.88,.66-.75,1.32h0Zm10.07,25.84h0c0-.15-.08-.31-.23-.51-.54-.71-1.27-1.2-1.99-1.68-1.67-1.13-3.33-2.26-5.15-3.14-.1-.05-.18-.12-.26-.19-.05-.05-.08-.2-.18-.12-.08,.05-.18,.14-.17,.26,.03,.2-.05,.38-.1,.57-.04,.15-.04,.24,.12,.34,.27,.18,.55,.33,.84,.47,.9,.42,1.76,.91,2.54,1.52,.25,.2,.46,.45,.74,.62,.7,.41,1.4,.84,2.09,1.29,.48,.31,1.03,.49,1.55,.71,.11,.05,.19,.03,.19-.13h0Zm-11.67-21.57h0q-.55,0-.48,.47c0,.05,0,.11,.01,.16,.03,.4,.08,.47,.48,.48,.81,.03,1.63,0,2.44-.04,.65-.04,1.31-.1,1.96-.2,.97-.14,1.94-.26,2.9-.49,.34-.08,.66-.21,.92-.45,.05-.05,.14-.1,.1-.18-.04-.09-.13-.06-.2-.05-1.22,.18-4.19,.37-5.47,.33-.92-.03-1.85,.11-2.67-.04h0Zm5.44,24.79h0c-.08-.61-.08-1.26-.18-1.9-.24-1.64-.69-3.23-1.23-4.8-.07-.22-.17-.42-.32-.59-.05-.07-.11-.14-.21-.11-.09,.03-.07,.12-.08,.2-.05,.34-.07,.69-.15,1.02-.06,.26-.1,.5,.09,.73,.09,.11,.12,.25,.14,.39,.13,.87,.41,1.71,.58,2.58,.18,.91,.4,1.8,.83,2.63,.08,.16,.15,.39,.37,.33,.2-.05,.15-.28,.16-.48h0ZM23.41,30.96h0c.46-.14,1-.2,1.49-.43,1.21-.57,2.41-1.13,3.6-1.73,.15-.08,.32-.16,.49-.16,.25,0,.4-.13,.52-.31,.07-.1,.15-.18,.23-.26,.18-.18,.36-.37,.54-.56,.05-.05,.13-.1,.09-.19-.04-.09-.14-.09-.22-.09-.17,0-.35,0-.51,.07-1.15,.47-2.35,.82-3.45,1.43-.95,.52-1.9,1.06-2.78,1.68-.08,.06-.16,.12-.22,.19-.07,.07-.14,.15-.08,.26,.05,.1,.16,.1,.31,.11h0Zm14.92,11.63h0c.02-.16,.02-.17-.15-.23-.44-.16-.52-.13-.74,.29-.06,.11-.11,.23-.15,.36-.22,.65-.41,1.32-.67,1.95-.77,1.88-1.47,3.79-2.47,5.57-.03,.05-.1,.11-.02,.17,.05,.03,.1-.02,.14-.05,.45-.38,.9-.77,1.22-1.28,.9-1.45,1.69-2.95,2.25-4.57,.25-.72,.52-1.44,.59-2.21h0Zm.95-.06h0c-.14,0-.3-.05-.41,.01-.15,.08,0,.28-.07,.42,0,.02,0,.04-.01,.06-.12,.67-.34,1.31-.55,1.95-.74,2.2-.47,2.24-1.03,4.28-.02,.07-.09,.16-.02,.21,.09,.06,.15-.06,.2-.11,.11-.12,.23-.24,.3-.37,.46-.81,.89-1.64,1.11-2.56,.28-1.1,.69-2.17,.91-3.29,.12-.6,.22-.58-.44-.59h0Zm20.75-3.56c.1,.06,.21,.1,.32,.15,.06,.03,.13,.05,.18-.01,.03-.05,0-.1-.04-.14-.2-.25-.36-.55-.66-.7-.78-.38-1.54-.82-2.44-.88-.36-.03-.73-.08-1.09-.11-.12-.01-.24-.03-.34,.05-.07,.06-.18,.11-.17,.22,.01,.12,.14,.06,.21,.09,.03,.01,.06,.01,.09,.02,.05,.02,.11,.04,.11,.1,0,.09-.08,.09-.13,.11-.05,.01-.11,.02-.16,.02-.34-.02-.64,.05-.85,.35-.03,.04-.09,.06-.13,.09-.05,.04-.15,.04-.12,.12,.02,.07,.11,.05,.17,.05,1.32,0,3.95-.13,5.06,.49h0Zm-10.52-19.48h0c.05-.32,.11-.64,.07-.96-.07-.53-.14-1.06-.12-1.6,0-.21,.02-.48-.23-.57-.19-.07-.32,.13-.42,.51-.25,.91-.18,1.81-.01,2.71,.03,.15,.09,.29,.19,.4,.14,.16,.29,.31,.37,.52,.01,.04,.06,.08,.08,.08,.07,0,.07-.07,.07-.12,0-.32,0-.64,0-.97h0Zm1.79,20.47h0c-.06,.03-.16-.02-.18,.1-.01,.1,.35,.56,.43,.53,.16-.08,.18-.26,.17-.39-.02-.25-.27-.17-.42-.24h0Zm-18.68-8.62c.42-.4,.83-.8,1.3-1.15,.41-.3,.74-.72,.99-1.17,.09-.16,.18-.32,.28-.47,.04-.07,.11-.16,.21-.11,.11,.05,.09,.17,.06,.26-.12,.31-.26,.61-.46,.88-.26,.35-.58,.64-.94,.88-.44,.3-.8,.69-1.19,1.04-.06,.05-.12,.14-.22,.08-.09-.06-.06-.15-.03-.23h0Zm7.27-9.67c-.31-.04-.46-.17-.43-.39,.01-.1,.05-.19,.15-.22,.11-.03,.18,.02,.24,.11,.11,.15,.11,.32,.06,.49h-.02Zm-.06,18.46c-.1,0-.15,0-.2-.01-.13-.02-.27-.05-.27-.22,0-.16,.12-.22,.26-.24,.79-.1,1.54-.37,2.3-.6,.09-.03,.19-.11,.27,0,.09,.12-.05,.18-.11,.26-.18,.24-.43,.38-.71,.48-.51,.19-1.04,.26-1.53,.33h0Zm3.57-3.68c0,.11-.02,.22-.07,.31-.23,.45-.6,.78-.97,1.11-.08,.07-.18,.08-.26,0-.09-.09-.05-.17,.02-.25,.3-.37,.57-.76,.73-1.2,.05-.14,.18-.18,.3-.22,.16-.06,.25,.04,.25,.26h0Zm-9.01-3.38c-.15,.44-.05,.95-.17,1.44-.02,.1-.02,.25-.15,.24-.12-.01-.12-.16-.14-.26,.03-.46-.19-1.16,.19-1.66,.06-.04,.12-.05,.18-.01,.08,.05,.1,.14,.09,.26h0Zm.21-.95c0-.12,.02-.22,.06-.3,.22-.51,.62-.87,1.04-1.2,.05-.04,.11-.09,.17-.03,.07,.06,0,.12-.03,.17-.1,.15-.19,.32-.31,.45-.26,.29-.49,.59-.63,.96-.03,.09-.07,.2-.2,.17-.11-.03-.11-.14-.12-.21h0Zm7.95,3.46c-.09,.32-.2,.66-.42,.94-.09,.11-.22,.15-.34,.06-.13-.1-.1-.23,0-.33,.21-.22,.33-.47,.38-.76,.02-.1,.05-.23,.19-.22,.18,.02,.16,.17,.19,.31h0Zm-3.11,3.62c-.15-.03-.43,.07-.45-.19-.01-.2,.24-.23,.42-.26,.23-.04,.46-.12,.7-.06,.07,.02,.15,.03,.17,.12,.02,.08-.04,.14-.1,.19-.21,.17-.46,.22-.75,.21h0Zm-3.36-7.18c-.14-.03-.2-.14-.16-.26,.1-.34,.32-.6,.63-.78,.08-.05,.17-.03,.24,.04,.06,.07,.07,.17,0,.24-.2,.21-.36,.45-.53,.68-.04,.05-.1,.08-.18,.08h0Zm-2.12,3.32c.09,.02,.12,.09,.14,.16,.09,.35,.09,.73,.27,1.06,.03,.05,.02,.13-.05,.17-.05,.03-.11,.01-.15-.02-.11-.07-.2-.17-.25-.29-.11-.29-.13-.59-.1-.89,0-.09,.04-.17,.14-.2h0Zm7.02,3.36c-.14,0-.24-.02-.29-.14-.05-.11,0-.21,.09-.24,.27-.11,.51-.27,.81-.28,.07,0,.16-.04,.2,.04,.03,.07-.03,.14-.07,.2-.19,.26-.47,.36-.74,.42h0Zm-3.66-5.86c-.15-.03-.26-.12-.2-.28,.08-.23,.23-.41,.46-.52,.11-.05,.21,0,.25,.13,.07,.22-.26,.67-.5,.67h0Zm3.34,.99c0,.21-.18,.43-.36,.42-.16,0-.23-.1-.23-.25,0-.21,.18-.44,.35-.44,.15,0,.25,.1,.25,.27h0Zm-1.81-.34c.03-.16,0-.39,.24-.42,.2-.02,.23,.17,.23,.32,0,.17-.03,.37-.24,.4-.18,.02-.23-.12-.23-.3h0Zm-2.08-1.29c-.11,0-.15-.08-.16-.17-.03-.18,.19-.48,.37-.52,.09-.02,.17,0,.22,.09,.08,.17-.24,.61-.42,.6h0Zm1.05,7.34c.17,.02,.34,.08,.5,.16,.1,.05,.16,.12,.12,.23-.04,.11-.13,.08-.22,.07-.18-.02-.35-.1-.5-.2-.06-.04-.19-.05-.14-.17,.04-.08,.14-.09,.24-.09h0Zm3.89-5.24c0,.16-.07,.3-.28,.29-.17,0-.2-.13-.2-.27,0-.23,.1-.38,.25-.38,.14,0,.23,.14,.22,.36h0Zm-7.28,3.14c.2,0,.5,.44,.43,.61-.04,.09-.11,.1-.18,.05-.16-.11-.3-.24-.36-.43-.04-.11-.01-.21,.12-.23h0Zm4.02-4.62c-.06,.13-.05,.34-.27,.33-.14,0-.17-.12-.15-.24,.04-.16,.09-.32,.3-.32,.14,0,.12,.12,.12,.22h0Zm9.68-5.68c.04,1.7-.55,3.15-1.75,4.35-.2,.2-.45,.34-.71,.44-.48,.19-.96,.39-1.46,.53-.11,.03-.23,.05-.35,.06-.12,0-.22-.04-.24-.17-.02-.13,.08-.19,.18-.23,.07-.02,.15-.04,.22-.05,.85-.12,1.51-.6,2.16-1.09,.14-.11,.12-.23,.04-.33-.09-.11-.18,0-.24,.06-.68,.55-1.5,.73-2.31,.95-.22,.06-.45,.04-.67-.03-.1-.03-.18-.09-.16-.21,.02-.11,.12-.1,.21-.1,.71-.04,1.38-.21,1.93-.7,.2-.17,.45-.24,.68-.37,.41-.24,.85-.47,1.07-.91,.27-.56,.43-1.17,.57-1.78,0-.02,0-.04,0-.06,0-.13,.03-.3-.13-.32-.15-.02-.14,.17-.16,.27-.15,.72-.5,1.35-.98,1.9-.38,.44-.89,.66-1.46,.77-.08,.02-.15,0-.19-.08-.04-.08,0-.15,.05-.2,.06-.06,.13-.12,.19-.17,.26-.19,.5-.4,.74-.63,.09-.09,.2-.2,.31-.22,.32-.06,.43-.29,.54-.54,.42-.99,.75-1.99,.65-3.09-.03-.27-.13-.5-.24-.73-.45-.97-1.16-1.64-2.21-1.93-.06-.02-.12-.04-.18-.06-.05-.02-.09-.06-.07-.12,.01-.05,.06-.07,.1-.07,.14,0,.28,0,.42,.01,.8,.08,1.4,.54,1.92,1.09,.51,.54,.86,1.18,1.09,1.89,.01,.04,.02,.09,.04,.12,.37,.54,.4,1.14,.4,1.77h0Zm-2.83-.5c0,.72-.43,1.17-.97,1.54-.17,.12-.36,.23-.57,.3-.12,.04-.14,.11-.04,.21,.06,.06,.26,.1,.1,.22-.13,.1-.28,.28-.48,.13-.15-.11-.27-.25-.33-.43-.03-.08-.05-.16-.18-.12-.65,.2-1.28-.02-1.9-.16-.4-.09-.78-.25-1.08-.55-.03-.03-.06-.06-.09-.1-.08-.12-.26-.25-.13-.38,.09-.09,.25,.06,.36,.13,.89,.62,1.9,.76,2.94,.79,.1,0,.13-.04,.15-.13,.04-.18,.14-.21,.27-.07,.11,.12,.2,.08,.31,.03,.23-.12,.47-.23,.64-.43,.28-.34,.68-.56,.85-.99,.02-.04,.05-.08,.1-.06,.02,0,.03,.05,.04,.08h0Zm1.33-.78c-.03,.94-.27,1.74-.94,2.37-.13,.12-.3,.33-.46,.19-.17-.16,.07-.32,.17-.45,.17-.25,.31-.52,.36-.82,.03-.18,.07-.36,.12-.54,.17-.66,.06-1.27-.33-1.84-.07-.1-.14-.2-.05-.32,.09-.12,.2-.05,.32-.01,.77,.22,.79,.84,.82,1.42h0Zm-4.19,6.63c-.47-.1-1.01-.14-1.51-.37-.19-.09-.35-.22-.45-.4-.05-.09-.08-.19,.01-.27,.08-.07,.16-.04,.24,.01,.55,.39,1.21,.4,1.84,.53,.18,.04,.43,.01,.41,.25-.01,.25-.28,.21-.46,.24-.01,0-.02,0-.09,0h0Zm1.21-9.73c.21,0,.43-.04,.63,.07,.12,.06,.23,.15,.19,.3-.04,.16-.19,.11-.3,.09-.54-.09-1.07,.02-1.6,.06-.05,0-.11,.01-.16,.02-.09,0-.18,0-.21-.1-.02-.1,.05-.16,.12-.21,.11-.07,.23-.12,.36-.13,.32-.03,.64-.12,.96-.09h0Zm-5.5,1.75c.15,0,.2,.08,.18,.21-.01,.09-.08,.15-.13,.22-.23,.27-.43,.56-.45,.94,0,.07-.04,.15-.07,.21-.05,.09-.13,.15-.24,.13-.09-.02-.14-.09-.16-.18-.13-.45,.34-1.35,.79-1.5,.03,0,.06-.01,.09-.02h0Zm3.32-2.07c0,.1-.06,.17-.14,.2-.21,.09-.38,.23-.58,.34-.21,.12-.47,.09-.71,.16-.12,.04-.2-.07-.12-.21,.02-.03,.04-.05,.06-.07,.34-.31,.73-.52,1.18-.61,.15-.03,.28,0,.3,.18h0Zm1.73-.47c.15,0,.32-.02,.34,.17,.02,.16-.12,.21-.25,.25-.34,.09-.69,.14-1.04,.18-.1,.01-.23,.02-.28-.1-.05-.13,.05-.22,.15-.29,.12-.09,.26-.1,.4-.12,.23-.03,.47-.06,.69-.09h0Zm-.22,8.81c-.15-.05-.43,.04-.44-.19-.02-.25,.26-.19,.43-.21,.27-.03,.51-.15,.78-.17,.1,0,.25-.05,.29,.07,.04,.12-.07,.22-.18,.27-.27,.14-.56,.2-.88,.23h0Zm2.82-6.86c0,.13-.03,.25-.16,.29-.11,.03-.17-.06-.22-.15-.1-.17-.26-.29-.39-.42-.1-.1-.26-.22-.11-.38,.14-.15,.28-.03,.4,.06,.34,.23,.48,.42,.49,.61h0Zm-.66,1.05c0,.14-.04,.27-.19,.29-.16,.02-.23-.08-.26-.22-.03-.11-.06-.23-.08-.34-.02-.1,0-.2,.1-.25,.1-.05,.19-.02,.26,.05,.13,.12,.17,.29,.18,.46h0Zm-1.21-.94c-.15-.06-.31-.02-.47,0-.12,.01-.22-.02-.24-.16-.02-.12,.08-.17,.17-.2,.22-.06,.44-.12,.66,0,.09,.05,.15,.13,.12,.24-.03,.12-.12,.14-.24,.12h0Zm-2.55,6.92c.13,.03,.31,.07,.48,.12,.09,.03,.18,.1,.15,.22-.02,.09-.11,.14-.2,.14-.23,.01-.44-.06-.64-.18-.07-.04-.1-.12-.07-.2,.04-.1,.13-.1,.27-.1h0Zm-1.91-7.38c0,.23-.4,.55-.58,.5-.16-.04-.21-.17-.13-.3,.12-.19,.31-.29,.53-.33,.12-.03,.17,.05,.18,.13h0Zm2.26-.35c0,.12-.25,.3-.39,.3-.12,0-.17-.08-.17-.19,0-.13,.23-.3,.38-.29,.11,.01,.18,.07,.18,.18h0Zm1.54,6.43c-.02,.17-.16,.21-.29,.25-.11,.03-.21-.03-.2-.14,0-.16,.14-.23,.28-.25,.11-.02,.18,.03,.21,.15h0Zm.99-.35c.1,0,.15,.04,.14,.11-.02,.15-.16,.19-.28,.23-.08,.03-.17-.04-.16-.11,.03-.16,.2-.17,.29-.24h0Zm-16.6,13.99c.04-.36,.2-.71,.31-1.06,.02-.06,.04-.12,.07-.18,.41-.72,.19-1.43-.07-2.13-.04-.12-.2-.27-.04-.37,.15-.09,.23,.1,.31,.21,.05,.06,.08,.14,.16,.14,.3,0,.45,.24,.6,.44,.13,.17,.27,.26,.49,.26,.17,0,.34,.04,.5,.11,.12,.05,.19,.14,.17,.28-.02,.15-.14,.19-.27,.18-.66-.06-1.02,.32-1.24,.87-.2,.5-.43,.99-.7,1.45-.05,.08-.04,.22-.17,.2-.11-.02-.12-.14-.13-.24,0-.04,0-.09,0-.15h0Zm3.83,3.2c-.59,0-1.02-.1-1.46-.15-.11-.01-.24-.04-.23-.17,0-.14,.14-.15,.25-.16,.18-.03,.37-.07,.54-.04,.63,.08,1.24,0,1.85-.15,.13-.03,.32-.11,.38,.02,.08,.17-.11,.28-.24,.37-.38,.25-.81,.27-1.09,.29h0Zm-1.56-9.5c-.05,0-.11,0-.14-.05-.03-.06,0-.1,.04-.14,.09-.1,.16-.2,.26-.28,.48-.38,.99-.72,1.57-.94,.07-.03,.14-.06,.22-.05,.17,0,.24,.15,.15,.3-.01,.02-.03,.04-.04,.05-.65,.33-1.2,.83-1.89,1.1-.05,.02-.1,.02-.16,.04h0Zm4.64,5.47c-.17,0-.23-.1-.15-.26,.08-.15,.21-.27,.34-.39,.2-.18,.4-.36,.6-.53,.1-.09,.22-.1,.32-.01,.1,.09,.1,.22,.02,.32-.3,.34-.64,.62-1.04,.84-.03,.01-.06,.02-.08,.02h0Zm-.72-.07c.14,0,.24,.02,.29,.12,.06,.1,.05,.22-.02,.3-.24,.3-.56,.46-.92,.55-.21,.05-.35-.17-.23-.36,.21-.33,.55-.49,.87-.61h0Zm-1.08,2.66c-.12,0-.2,0-.24-.09-.05-.1,.02-.16,.08-.22,.04-.03,.08-.07,.13-.09,.34-.15,.67-.33,1-.51,.1-.06,.23-.13,.32,0,.07,.11,0,.23-.09,.32-.34,.35-.78,.52-1.21,.59h0Zm-6.57-4.42c.18-.47,.12-1.04,.49-1.48,.06-.07,.1-.18,.22-.16,.12,.01,.25,.03,.16,.21-.24,.52-.48,1.03-.72,1.55-.02,.04-.04,.09-.09,.07-.08-.02-.07-.09-.07-.19h0Zm5.54,4.22c.13,0,.29-.02,.35,.15,.05,.17-.06,.29-.19,.37-.22,.13-.47,.15-.72,.11-.12-.02-.22-.09-.24-.23-.02-.15,.06-.25,.19-.3,.19-.08,.4-.08,.61-.1h0Zm3.82-1.86c-.03,.27-.19,.4-.33,.55-.14,.14-.3,.24-.47,.32-.11,.05-.22,.06-.29-.04-.08-.11-.05-.23,.05-.32,.25-.22,.5-.43,.76-.64,.06-.05,.13-.09,.21-.05,.09,.05,.09,.14,.08,.18h0Zm-3.21-6.16c-.01,.12-.07,.18-.16,.21-.22,.07-.4,.21-.6,.31-.09,.05-.19,.09-.27,0-.09-.1-.02-.2,.04-.29,.18-.23,.39-.4,.7-.41,.14,0,.25,.04,.28,.18h0Zm.93,5.31c-.15,0-.24-.09-.26-.25-.02-.19,.27-.47,.49-.48,.15,0,.25,.07,.25,.23,0,.21-.26,.5-.49,.51h0Zm-.74-4.44c.12,0,.2,.02,.24,.12,.03,.08,0,.15-.06,.2-.16,.17-.37,.25-.59,.3-.1,.02-.19-.02-.24-.12-.05-.11-.02-.22,.08-.28,.18-.12,.38-.19,.57-.22h0Zm-3.61,8.35c-.06-.01-.14-.02-.21-.04-.15-.05-.28-.14-.24-.32,.04-.19,.19-.2,.35-.17,.09,.02,.19,.04,.28,.06,.12,.03,.24,.08,.24,.22,0,.16-.12,.21-.26,.24-.05,.01-.11,.01-.17,.02h0Zm-1.28,.33c-.27-.03-.5-.25-.47-.44,.02-.14,.1-.21,.24-.2,.21,0,.54,.27,.52,.41-.03,.18-.16,.24-.3,.23h0Zm-1.3-1.03c0-.11,.07-.22,.22-.22,.17,0,.34,.22,.33,.44,0,.15-.08,.25-.24,.24-.15,0-.32-.24-.32-.46h0Zm-.51-3.13c0-.13,.02-.26,.07-.38,.02-.05,.05-.1,.11-.1,.06,0,.1,.03,.12,.08,.1,.24,.09,.48,.04,.72-.01,.06-.06,.12-.13,.12-.09,0-.14-.05-.16-.13-.02-.1-.03-.21-.04-.31h0Zm2.52-4.47c-.18,0-.26-.13-.18-.27,.11-.19,.29-.29,.5-.33,.15-.03,.23,.11,.15,.26-.1,.2-.3,.26-.47,.33h0Zm-.6,.48c0,.16-.35,.54-.47,.54-.1,0-.15-.07-.17-.16-.04-.2,.28-.53,.48-.5,.1,.01,.15,.08,.15,.12h0Zm4.23,5.86c-.11,0-.2,0-.23-.1-.03-.08,.03-.14,.1-.18,.14-.08,.28-.15,.44-.19,.06-.01,.11,0,.15,.04,.05,.06,.02,.12-.01,.18-.11,.16-.28,.23-.44,.26h0Zm-5.56,.41c0,.1,0,.18-.07,.21-.09,.04-.14-.05-.16-.11-.08-.21-.15-.42-.14-.65,0-.06,.03-.13,.1-.14,.08-.01,.11,.05,.13,.12,.05,.21,.1,.42,.14,.59h0Zm5.9-3.9c-.02,.13-.14,.18-.23,.23-.09,.05-.18,.12-.29,.05-.05-.03-.07-.08-.06-.14,.02-.12,.1-.18,.2-.23,.11-.05,.21-.1,.33-.03,.04,.02,.06,.06,.06,.11h0Zm-1.68-2.74c-.08-.01-.17-.03-.14-.11,.06-.15,.19-.22,.35-.24,.07-.01,.13,.03,.11,.11-.04,.17-.2,.2-.32,.24h0Zm23.22-3.54s0,.02,0,.03c-.01,.09,.04,.24-.05,.26-.12,.04-.11-.13-.15-.2-.27-.38-.43-.81-.61-1.24-.04-.1-.09-.19-.14-.29-.23-.46-.58-.7-1.1-.68-.13,0-.27,0-.3-.17-.03-.17,.08-.26,.22-.31,.1-.04,.21-.07,.31-.07,.28-.01,.52-.09,.68-.35,.08-.13,.13-.09,.18,.05,.19,.64,.4,1.26,.68,1.87,.16,.34,.29,.69,.3,1.08h0Zm-1.09-5.19c.23,0,.41,.12,.56,.28,.58,.62,1.01,1.33,1.23,2.16,.02,.08,.02,.17,.02,.25,0,.08-.05,.14-.13,.17-.09,.03-.17,0-.23-.07-.05-.06-.07-.13-.09-.2-.13-.49-.38-.93-.64-1.37-.21-.35-.45-.65-.84-.82-.12-.05-.25-.12-.19-.29,.05-.14,.19-.12,.3-.11h0Zm-2.41,8.43c-.4,0-.75-.06-1.08-.19-.09-.03-.17-.08-.25-.14-.1-.08-.24-.18-.2-.31,.05-.16,.23-.08,.34-.05,.65,.16,1.31,.24,1.98,.14,.16-.02,.34,.03,.51,.06,.09,.02,.21,.04,.21,.16,0,.12-.12,.15-.21,.16-.45,.06-.89,.16-1.3,.17h0Zm-.03-.98c-.26-.04-.51-.04-.69-.26-.16-.2-.09-.38,.17-.4,.2-.02,.41,.02,.6,.07,.17,.04,.35,.12,.32,.33-.03,.22-.23,.26-.4,.26h0Zm3.25-.53c0-.08,.02-.16,.07-.21,.18-.2,.35-.4,.53-.6,.06-.07,.13-.11,.23-.07,.11,.05,.12,.16,.09,.25-.11,.31-.24,.62-.54,.81-.08,.05-.17,.12-.27,.06-.1-.05-.09-.16-.11-.25h0Zm-5.18-2.84c-.21,0-.5-.3-.49-.5,0-.16,.08-.24,.24-.23,.22,0,.52,.28,.5,.47-.01,.16-.11,.25-.25,.27h0Zm4.31,3.9c-.09,0-.17,0-.25-.05-.08-.04-.15-.09-.15-.19,0-.1,.06-.17,.14-.19,.15-.05,.31-.09,.46-.12,.13-.02,.23,.05,.27,.17,.04,.12-.02,.21-.11,.28-.11,.07-.23,.11-.37,.1h0Zm1.69-2.78c.01-.18,.06-.35,.14-.52,.04-.1,.13-.14,.24-.11,.1,.03,.13,.11,.13,.2,0,.19,0,.39-.12,.56-.06,.1-.11,.23-.27,.18-.14-.05-.12-.18-.13-.31h0Zm.17-1.68c.08,0,.15,.03,.18,.1,.04,.09,.07,.18,.1,.27,.05,.15,.07,.33-.12,.36-.23,.04-.28-.19-.33-.36-.04-.14-.06-.3,.13-.37,0,0,.02,0,.03,0h0Zm-4.9,2.49c-.16-.04-.32-.1-.43-.25-.04-.05-.07-.12-.02-.18,.04-.06,.11-.07,.17-.04,.14,.05,.28,.11,.41,.17,.08,.04,.14,.11,.1,.21-.04,.09-.13,.09-.23,.09h0Zm-.16-3.64c.18,0,.4,.16,.41,.3,0,.11-.06,.15-.16,.15-.15,0-.42-.19-.41-.3,0-.11,.07-.15,.17-.15h0Zm-22.02-6.48c.09,.01,.2,0,.3,.05,.73,.3,1.47,.59,2.16,1,.03,.02,.06,.04,.08,.06,.06,.06,.15,.12,.09,.21-.05,.08-.14,.01-.2-.02-.46-.21-.91-.45-1.38-.62-.37-.13-.75-.27-1.1-.45-.08-.04-.23-.03-.2-.16,.03-.12,.16-.06,.27-.08h0Zm3.74,6.14c-.01,.1-.06,.18-.13,.25-.41,.45-.92,.76-1.4,1.12-.07,.05-.16,.09-.23,0-.05-.08,.02-.14,.07-.19,.12-.12,.25-.24,.38-.35,.36-.29,.76-.52,1.06-.88,.05-.06,.12-.1,.2-.06,.04,.02,.05,.07,.05,.12h0Zm-6.4-6.89c-.59-.17-1.23-.24-1.84-.45-.07-.02-.16-.05-.14-.15,.02-.1,.11-.1,.18-.08,.64,.11,1.3,.18,1.91,.44,.07,.03,.19,.07,.15,.18-.03,.1-.14,.06-.26,.07h0Zm6.74-2.74c0,.1-.05,.14-.13,.11-.06-.02-.12-.05-.17-.09-.34-.29-.65-.62-1.01-.89-.08-.06-.16-.14-.08-.24,.08-.1,.17-.03,.26,.02,.38,.25,.7,.57,1.01,.89,.06,.06,.1,.14,.12,.21h0Zm-5.83,2.91c.35,.12,.73,.26,1.08,.48,.05,.03,.1,.09,.07,.16-.03,.06-.09,.05-.14,.04-.4-.1-.78-.23-1.12-.47-.05-.04-.12-.08-.09-.15,.03-.08,.11-.04,.21-.06h0Zm7.06-1.46c0,.06,0,.11-.06,.14-.06,.03-.11,0-.15-.03-.25-.25-.5-.5-.66-.82-.02-.05-.05-.1,0-.15,.02-.02,.06-.02,.09-.01,.12,.02,.77,.76,.78,.87h0Zm-.39,3.18c-.06,.31-.25,.54-.45,.77-.04,.05-.11,.07-.18,.04-.07-.04-.09-.11-.06-.16,.15-.29,.37-.53,.49-.83,.02-.05,.09-.05,.14-.02,.08,.05,.06,.13,.05,.21h0Zm-.12,3.77s-.02,.07-.05,.11c-.16,.2-.32,.4-.49,.6-.05,.06-.12,.11-.19,.05-.06-.05-.05-.12-.02-.18,.15-.25,.33-.47,.55-.66,.07-.06,.16-.05,.2,.08h0Zm3.15-2.6c-.03,.17-.11,.3-.28,.31-.18,.01-.27-.12-.27-.29,0-.18,.11-.28,.28-.28,.16,0,.24,.11,.27,.26h0Zm-2.5,1.5c-.05,.2-.15,.38-.3,.54-.05,.05-.12,.06-.17,.01-.05-.04-.08-.11-.04-.17,.09-.18,.19-.36,.34-.5,.03-.03,.07-.05,.12-.03,.06,.02,.06,.08,.06,.15h0Zm-3.51-4.73c-.03,.09-.09,.08-.15,.04-.19-.13-.38-.27-.57-.41-.04-.03-.07-.08-.05-.14,.02-.04,.06-.07,.1-.05,.25,.11,.49,.25,.65,.49,.01,.02,0,.04,.01,.06h0Zm3.97,3.68c-.05,.13-.07,.32-.27,.34-.11,.01-.14-.09-.12-.18,.03-.15,.07-.31,.25-.34,.11-.02,.15,.07,.14,.18h0Zm14.51,14.66c0,.74-.21,1.38-.33,2.03-.03,.14-.13,.27-.21,.39-.08,.12-.21,.2-.36,.11-.14-.08-.11-.22-.06-.34,.03-.07,.06-.14,.11-.2,.51-.71,.5-1.48,.27-2.27-.05-.17-.14-.33-.02-.52,.11-.17,.19-.2,.35-.06,.13,.12,.2,.28,.22,.45,.02,.16,.03,.32,.04,.41h0Zm.65,2.28c.03,.42-.19,.73-.38,1.03-.22,.35-.48,.66-.77,.95-.06,.06-.13,.11-.2,.16-.11,.07-.22,.1-.32,0-.1-.1-.06-.22,.01-.32,.18-.23,.35-.46,.54-.69,.31-.37,.5-.83,.79-1.22,.07-.09,.09-.29,.25-.24,.16,.05,.05,.23,.08,.32h0Zm-4.36,2.81c-.13-.02-.29,0-.31-.17-.02-.15,.13-.17,.25-.2,.44-.12,.86-.27,1.27-.46,.13-.06,.28-.14,.37,.02,.1,.18-.04,.28-.18,.35-.44,.23-.91,.38-1.4,.46h0Zm-.47,.81c-.31-.02-.67-.07-1-.23-.09-.04-.18-.1-.16-.21,.03-.14,.15-.1,.24-.08,.45,.09,.91,.17,1.37,.08,.09-.02,.17,.01,.21,.11,.04,.11-.02,.19-.11,.24-.15,.09-.32,.11-.56,.1h0Zm1.39-.28c-.1,0-.24,.01-.27-.14-.04-.16,.11-.19,.22-.22,.33-.09,.64-.24,.95-.4,.14-.07,.3-.14,.39,.05,.08,.17-.06,.25-.18,.33-.3,.2-.78,.37-1.1,.37h0Zm1.79-2.41c-.03,.27-.44,.76-.7,.83-.07,.02-.13,.02-.18-.03-.07-.06-.06-.14-.02-.21,.16-.31,.35-.59,.65-.78,.06-.04,.13-.09,.21-.03,.07,.05,.07,.13,.05,.21h0Zm-5.02,2.14c-.2-.03-.38-.12-.54-.25-.06-.05-.09-.12-.05-.2,.04-.07,.11-.07,.17-.05,.18,.04,.35,.09,.53,.14,.1,.03,.16,.11,.14,.22-.03,.13-.13,.15-.25,.15h0Zm3.62-4.12c.01-.06,.02-.14,.05-.22,.02-.05,.06-.09,.12-.1,.08-.01,.13,.04,.15,.1,.05,.15,.09,.31,.09,.47,0,.12-.03,.22-.17,.24-.14,.01-.19-.08-.21-.2-.01-.09-.02-.17-.04-.29h0Zm-3.08-.59c0,.12,0,.25-.16,.26-.15,.01-.27-.2-.28-.44,0-.15,.05-.25,.21-.26,.14,0,.22,.17,.22,.44h0Zm2.07,.93c0,.14-.03,.23-.15,.24-.1,.01-.16-.05-.19-.14,0-.02-.02-.04-.02-.06,0-.16-.13-.33,.02-.49,.03-.03,.08-.04,.12-.01,.14,.13,.19,.3,.22,.45h0Zm1.84,1.02c-.03,.12-.06,.25-.21,.29-.09,.02-.15-.04-.14-.13,.01-.13,.05-.26,.2-.3,.09-.02,.13,.04,.14,.14h0Zm-5.03-29.35c.87,.14,1.67,.75,2.05,1.55,.43,.91,.85,1.81,1.04,2.81,.02,.13,.06,.25,.02,.38-.02,.06-.04,.13-.12,.13-.07,0-.13-.03-.15-.1-.03-.08-.05-.16-.07-.25-.17-.67-.4-1.31-.71-1.94-.46-.96-1.12-1.73-2.09-2.21-.03-.01-.06-.03-.09-.05-.08-.05-.18-.1-.15-.22,.03-.14,.16-.12,.28-.12h0Zm-2.54-.63c.12-.01,.21,0,.27,.07,.1,.11,.12,.21-.05,.26-.09,.03-.19,.05-.28,.06-.58,.11-1.16,.21-1.7,.49-.17,.09-.36,.15-.54,.21-.08,.03-.17,.06-.23-.04-.05-.09,0-.17,.08-.22,.09-.07,.19-.14,.29-.2,.68-.4,1.43-.52,2.16-.63h0Zm4.36,3.72c.01,.16,0,.25-.09,.29-.1,.04-.17-.01-.22-.09-.25-.4-.5-.8-.75-1.2-.05-.08-.06-.17,0-.24,.06-.07,.14-.05,.2,0,.45,.33,.71,.79,.86,1.24h0Zm-7.14,1.93c0-.07,0-.12,0-.18,0-.09,.05-.14,.14-.14,.07,0,.12,.04,.14,.11,.09,.42,.22,.83,.43,1.21,.06,.11,.02,.27-.1,.34-.12,.07-.22-.03-.3-.12-.16-.18-.2-.4-.24-.62-.04-.2-.05-.41-.07-.59h0Zm1.02,.45c0-.19,.03-.28,.17-.3,.12,0,.18,.07,.19,.18,.03,.27,.14,.49,.32,.69,.06,.06,.11,.14,.02,.22-.09,.08-.19,.05-.26-.02-.24-.23-.35-.53-.44-.77h0Zm-.58-2.71c.04-.31,.21-.57,.47-.76,.12-.09,.25,0,.21,.15-.07,.28-.21,.54-.42,.74-.05,.05-.1,.09-.17,.06-.09-.03-.09-.11-.09-.21h0Zm7.29,1.76c0,.09,0,.14-.01,.19-.02,.09-.07,.16-.18,.16-.09,0-.14-.07-.15-.15-.02-.23-.09-.44-.15-.66-.02-.09-.01-.18,.09-.21,.09-.03,.17,0,.22,.09,.12,.19,.15,.4,.18,.58h0Zm-7.69-.52c.01-.21,.06-.39,.18-.55,.06-.07,.13-.12,.22-.08,.09,.04,.13,.13,.1,.21-.07,.2-.1,.42-.22,.6-.04,.07-.08,.18-.18,.15-.06-.02-.08-.12-.1-.19,0-.05,0-.11-.01-.14h0Zm4.38-4c-.16-.02-.32-.07-.47-.15-.08-.04-.14-.11-.11-.21,.03-.1,.11-.13,.2-.12,.17,.02,.34,.05,.5,.12,.09,.04,.15,.12,.12,.23-.03,.12-.12,.14-.23,.13h0Zm2.04,4.64c0,.15,0,.26-.13,.3-.12,.03-.19-.06-.25-.16-.06-.1-.08-.22-.08-.34,0-.12,.04-.21,.16-.24,.13-.02,.2,.05,.24,.16,.03,.1,.05,.21,.06,.27h0Zm.68-.05c0,.1-.02,.2-.12,.23-.12,.04-.17-.05-.21-.14,0-.02-.01-.04-.02-.06-.03-.13-.12-.26,0-.38,.04-.04,.09-.04,.15-.02,.1,.04,.2,.22,.2,.37h0Zm-2.3,.76c-.21,0-.41-.22-.39-.37,.01-.1,.07-.15,.17-.15,.14,0,.36,.24,.35,.37,0,.1-.07,.15-.13,.15h0Zm-1.74,1.1c-.17,.03-.32,0-.44-.14-.08-.09-.09-.2,0-.29,.09-.1,.19-.06,.29,0,.14,.11,.18,.26,.15,.43h0Zm-3.84-2.42c-.06-.18-.12-.36-.08-.54,.02-.11,0-.31,.16-.29,.12,.02,.06,.2,.03,.31-.05,.17-.08,.35-.11,.52h0Zm6.24,.57c.15,.05,.21,.17,.21,.32,0,.08-.03,.15-.13,.16-.09,0-.26-.23-.24-.35,.01-.09,.06-.14,.16-.13h0Zm9.74,1.59c.26,.07,.5-.03,.74-.1,1.63-.46,3.11-1.25,4.6-2.03,.71-.38,1.46-.68,2.16-1.09,.07-.04,.18-.11,.23-.02,.05,.1-.07,.14-.13,.19-.32,.26-.68,.46-1.05,.64-1.35,.65-2.62,1.44-4.01,2.01-.71,.29-1.44,.51-2.16,.75-.28,.09-.31,.05-.37-.35h0Zm-4.76-5.33c.7,2.81,.98,3.52,2.88,5.94,.04,.05,.1,.11,.04,.17-.07,.07-.14,0-.2-.05-.4-.28-.75-.59-1.03-1-1.16-1.74-1.54-2.66-1.77-4.77,0-.07-.02-.15,.07-.28h0Zm4.74-2.45c0,.07,0,.17-.09,.18-.1,.01-.11-.09-.13-.15-.06-.2-.06-.4-.07-.6,0-.31-.02-.62-.02-.93,0-.1,0-.25,.15-.25,.14,0,.13,.14,.14,.25,.05,.57,.03,.94,.02,1.51h0Zm4.05,9.6c-.12-.02-.22,0-.24-.09-.01-.09,.07-.13,.14-.16,.47-.17,.95-.34,1.42-.5,.08-.03,.16,0,.19,.08,.03,.07-.03,.12-.08,.15-.46,.26-.97,.4-1.42,.52h0Zm-1.84,.37c-.14,0-.24,0-.26-.11-.03-.11,.08-.14,.16-.17,.31-.08,.63-.16,.95-.16,.05,0,.12,0,.14,.06,.03,.08-.04,.13-.1,.14-.31,.08-.62,.16-.89,.23h0Zm.72-5.89c-.04,.13-.12,.2-.2,.27-.46,.37-.92,.74-1.38,1.11-.24,.2-.48,.4-.72,.59-.06,.05-.14,.15-.22,.07-.09-.09-.04-.2,.06-.28,.21-.17,.42-.33,.63-.51,.37-.31,.74-.62,1.11-.93,.17-.15,.36-.27,.57-.35,.07-.02,.12-.02,.16,.02h0Zm3.28-3.18c.07,0,.1,.03,.1,.09,0,.05-.02,.11-.06,.15-.41,.48-.76,1.01-1.27,1.41-.03,.03-.07,.05-.11,.07-.05,.03-.1,.04-.15,0-.06-.04-.03-.1,0-.15,.03-.06,.06-.12,.1-.16,.39-.43,.78-.85,1.18-1.28,.06-.06,.12-.12,.21-.14h0Zm-3.02,2.89s-.09,0-.11-.04c-.03-.05,0-.08,.03-.12,.29-.32,.61-.61,1.02-.78,.07-.03,.16-.05,.14,.09-.03,.16-.9,.84-1.07,.85h0Zm-.16,23.83s.11,.03,.17,.05c.7,.27,1.35,.65,2.01,1,.14,.08,.24,.21,.35,.33,.04,.05,.1,.1,.05,.16-.05,.06-.12,.02-.17-.01-.16-.09-.33-.16-.48-.26-.64-.39-1.3-.76-1.98-1.07-.06-.03-.17-.05-.15-.14,.02-.1,.11-.07,.2-.07h0Zm4.66,2.63c.19,.04,.35,.14,.49,.25,.4,.31,.78,.64,1.16,.97,.07,.06,.18,.14,.11,.24-.07,.11-.18,.02-.25-.03-.51-.34-.96-.75-1.44-1.12-.06-.04-.11-.11-.14-.17-.04-.07,0-.12,.08-.12h0Zm-.55-.16c-.02,.07-.07,.09-.13,.07-.43-.11-.81-.34-1.15-.62-.08-.07-.03-.14,.06-.15,.07,0,.15,.01,.22,.04,.27,.14,.55,.29,.81,.45,.08,.05,.15,.11,.18,.2h0Zm-7.65-18.93c.34,0,.69,0,1.03,0,.08,0,.2-.02,.21,.1,0,.1-.1,.12-.18,.15-.05,.02-.1,.03-.16,.03-.64,0-1.29,.03-1.93-.04-.09-.01-.23,.01-.22-.12,0-.15,.16-.11,.26-.11,.33,0,.66,0,1,0h0Zm4.12,23.61c.02,.2,.03,.33,.04,.46,0,.08-.02,.16-.11,.18-.09,.01-.15-.06-.16-.13-.11-.55-.21-1.1-.18-1.66,0-.05,.01-.12,.08-.13,.1-.01,.12,.08,.14,.15,.09,.4,.19,.8,.2,1.13h0Zm-.35-2.14c0,.09,0,.18-.09,.19-.09,.01-.13-.07-.15-.14-.14-.44-.25-.89-.33-1.34-.01-.06-.02-.14,.05-.17,.09-.04,.13,.04,.17,.11,.12,.21,.17,.44,.22,.67,.05,.23,.09,.46,.14,.68h0ZM25.34,29.62c0,.07-.04,.12-.08,.15-.41,.36-.91,.6-1.38,.87-.07,.04-.18,.06-.23-.03-.06-.09,.02-.16,.08-.21,.43-.32,.9-.58,1.39-.8,.07-.03,.16-.07,.22,.02h0Zm2.14-1.01c-.02,.08-.07,.11-.13,.14-.4,.23-.83,.41-1.25,.58-.07,.03-.15,.04-.19-.05-.05-.09,.02-.15,.09-.18,.41-.21,.8-.46,1.25-.57,.08-.02,.19-.06,.24,.07h0Zm10.39,14.55c-.05,.27-.09,.54-.21,.8-.23,.5-.42,1-.54,1.55-.08,.37-.28,.72-.44,1.07-.03,.07-.09,.12-.18,.11-.09-.01-.12-.09-.13-.16-.02-.12,0-.24,.05-.35,.47-.98,.73-2.04,1.16-3.04,0-.02,.01-.04,.02-.06,.04-.08,.07-.19,.17-.17,.14,.02,.07,.15,.09,.25h0Zm.49,2.43c.07-.25,.14-.53,.23-.8,.03-.1,.1-.18,.21-.13,.1,.04,.1,.13,.07,.22-.09,.27-.12,.56-.26,.82-.04,.06-.06,.16-.14,.14-.1-.02-.09-.13-.1-.24h0Zm.55-1.65c0-.35,.06-.63,.14-.91,.03-.09,.06-.21,.19-.18,.13,.03,.1,.14,.08,.24-.07,.28-.13,.56-.2,.84-.02,.08-.04,.21-.13,.2-.11-.02-.08-.16-.08-.19h0Zm18.28-6.3c.39,.06,.83,.1,1.26,.24,.09,.03,.22,.05,.19,.18-.03,.14-.17,.12-.27,.09-.41-.12-.83-.15-1.24-.22-.03,0-.07,0-.09-.02-.08-.03-.22-.04-.2-.17,.02-.1,.14-.08,.22-.09,.03,0,.06,0,.14,0h0Z"/></g></g></svg>