<?xml version="1.0" encoding="UTF-8"?><svg id="Layer_2" xmlns="http://www.w3.org/2000/svg" viewBox="0 0 137.36 137.36"><defs><style>.cls-1{fill:#fff;}.cls-2{fill:#1d1d1c;}.cls-3{fill:#1d1d1b;font-family:Zapfino, Zapfino;font-size:7px;}.cls-4{fill:none;stroke:#1d1d1b;stroke-miterlimit:10;stroke-width:.75px;}.cls-5{letter-spacing:-.08em;}</style></defs><g id="Layer_1-2"><g><g><circle class="cls-1" cx="68.68" cy="68.68" r="68.26" transform="translate(-28.45 68.68) rotate(-45)"/><path class="cls-2" d="M68.68,137.36C30.81,137.36,0,106.55,0,68.68S30.81,0,68.68,0s68.68,30.81,68.68,68.68-30.81,68.68-68.68,68.68ZM68.68,.83C31.27,.83,.83,31.27,.83,68.68s30.43,67.84,67.84,67.84,67.84-30.43,67.84-67.84S106.09,.83,68.68,.83Z"/></g><g><circle class="cls-1" cx="68.68" cy="68.68" r="62.64"/><path class="cls-2" d="M68.68,131.73c-34.77,0-63.06-28.29-63.06-63.06S33.91,5.62,68.68,5.62s63.06,28.29,63.06,63.06-28.29,63.06-63.06,63.06Zm0-125.28C34.37,6.46,6.46,34.37,6.46,68.68s27.91,62.22,62.22,62.22,62.22-27.91,62.22-62.22S102.99,6.46,68.68,6.46Z"/></g><path class="cls-2" d="M114.77,81.84H20.37c-.23,0-.42-.19-.42-.42s.19-.42,.42-.42H114.77c.23,0,.42,.19,.42,.42s-.19,.42-.42,.42Z"/><path class="cls-2" d="M80.09,89.89h-25.04c-.23,0-.42-.19-.42-.42s.19-.42,.42-.42h25.04c.23,0,.42,.19,.42,.42s-.19,.42-.42,.42Z"/><path class="cls-2" d="M111.34,107.67h-16.39c-.23,0-.42-.19-.42-.42s.19-.42,.42-.42h16.39c.23,0,.42,.19,.42,.42s-.19,.42-.42,.42Z"/><path class="cls-2" d="M41.98,107.67h-15.75c-.23,0-.42-.19-.42-.42s.19-.42,.42-.42h15.75c.23,0,.42,.19,.42,.42s-.19,.42-.42,.42Z"/><g><path class="cls-2" d="M86.24,117.26H51.12c-5.06,0-9.17-4.12-9.17-9.18s4.12-9.17,9.17-9.17h35.12c5.06,0,9.17,4.12,9.17,9.17s-4.12,9.18-9.17,9.18Zm-35.12-17.52c-4.6,0-8.34,3.74-8.34,8.34s3.74,8.34,8.34,8.34h35.12c4.6,0,8.34-3.74,8.34-8.34s-3.74-8.34-8.34-8.34H51.12Z"/><text class="cls-3" transform="translate(45.28 111.76)"><tspan x="0" y="0">CR</tspan><tspan class="cls-5" x="17.99" y="0">A</tspan><tspan x="26.76" y="0">VE</tspan></text></g><g><path class="cls-2" d="M116.74,81.89h-28.33c-.23,0-.42-.19-.42-.42s.19-.42,.42-.42h28.33c.23,0,.42,.19,.42,.42s-.19,.42-.42,.42Z"/><path class="cls-2" d="M116.74,81.89c-.22,0-.41-.18-.42-.41,0-.23,.18-.42,.41-.43,3.5-.1,6.28-3.03,6.18-6.53-.04-1.34-.59-2.58-1.56-3.49-.97-.92-2.23-1.41-3.58-1.37-1.05,.03-2.02,.46-2.74,1.22-.72,.76-1.1,1.76-1.07,2.8,.02,.81,.36,1.57,.95,2.13,.59,.56,1.38,.85,2.18,.83,1.3-.04,2.33-1.12,2.29-2.42,0-.23,.18-.42,.41-.43,.21-.01,.42,.18,.43,.41,.05,1.76-1.34,3.23-3.1,3.28-1.03,.02-2.02-.35-2.78-1.06-.75-.71-1.18-1.68-1.21-2.72-.04-1.27,.43-2.48,1.3-3.4,.87-.92,2.05-1.45,3.32-1.48,1.57-.04,3.04,.52,4.17,1.6,1.13,1.07,1.78,2.52,1.82,4.08,.11,3.96-3.03,7.28-6.99,7.39h-.01Z"/></g><g><path class="cls-2" d="M48.91,81.89H20.59c-.23,0-.42-.19-.42-.42s.19-.42,.42-.42h28.33c.23,0,.42,.19,.42,.42s-.19,.42-.42,.42Z"/><path class="cls-2" d="M20.58,81.89h-.01c-1.92-.05-3.71-.85-5.03-2.25-1.32-1.4-2.02-3.22-1.97-5.14,.04-1.56,.69-3.01,1.82-4.08,1.13-1.07,2.62-1.65,4.17-1.6,1.27,.04,2.45,.56,3.32,1.48,.87,.92,1.33,2.13,1.3,3.4-.03,1.04-.46,2-1.21,2.72-.75,.71-1.75,1.08-2.78,1.06-1.76-.05-3.15-1.52-3.1-3.28,0-.23,.21-.42,.43-.41,.23,0,.41,.2,.41,.43-.04,1.3,.99,2.39,2.29,2.42,.81,.02,1.59-.27,2.18-.83,.59-.56,.93-1.32,.95-2.13,.03-1.05-.35-2.04-1.07-2.8-.72-.76-1.69-1.19-2.74-1.22-1.34-.04-2.61,.45-3.58,1.37-.97,.92-1.52,2.16-1.56,3.49-.05,1.7,.57,3.31,1.74,4.54,1.17,1.23,2.74,1.94,4.44,1.98,.23,0,.41,.2,.41,.43,0,.23-.19,.41-.42,.41Z"/></g><g><path class="cls-2" d="M84.11,36.58c-2.9,0-5.41-2.19-5.75-5.14-.44-3.93,2.4-7.49,6.33-7.93,4.88-.55,9.3,2.98,9.85,7.86,.01,.13-.08,.25-.21,.26-.13,.01-.25-.08-.26-.21-.52-4.62-4.7-7.96-9.33-7.44-3.67,.41-6.32,3.74-5.91,7.41,.33,2.91,2.97,5.02,5.87,4.69,2.3-.26,3.97-2.34,3.71-4.65-.2-1.82-1.85-3.13-3.67-2.92-.69,.08-1.31,.42-1.74,.96-.43,.54-.63,1.22-.55,1.92,.13,1.12,1.13,1.92,2.25,1.8,.13-.01,.25,.08,.26,.21,.01,.13-.08,.25-.21,.26-1.37,.15-2.62-.84-2.78-2.21-.09-.82,.14-1.62,.65-2.26,.51-.64,1.25-1.05,2.06-1.14,2.07-.23,3.96,1.27,4.19,3.34,.29,2.56-1.56,4.88-4.12,5.17-.22,.02-.44,.04-.65,.04Z"/><path class="cls-2" d="M74.37,30.41c-.22,0-.43-.03-.65-.1-.7-.21-1.28-.68-1.63-1.33-.35-.65-.42-1.39-.21-2.09,.53-1.78,2.42-2.8,4.2-2.27,1.06,.32,1.94,1.03,2.47,2.01,.53,.98,.64,2.1,.32,3.17-.04,.13-.17,.2-.3,.16-.13-.04-.2-.17-.16-.3,.28-.94,.18-1.94-.29-2.81-.47-.87-1.24-1.5-2.19-1.78-1.53-.46-3.15,.41-3.61,1.95-.17,.58-.11,1.2,.18,1.73,.29,.53,.77,.92,1.35,1.1,.45,.14,.93,.09,1.35-.14s.72-.6,.86-1.05c.22-.72-.2-1.49-.92-1.71-.13-.04-.2-.17-.16-.29,.04-.13,.17-.2,.29-.16,.97,.29,1.53,1.32,1.24,2.29-.17,.57-.56,1.05-1.09,1.33-.33,.18-.7,.27-1.06,.27Z"/><g><path class="cls-2" d="M69.95,47.86c-.37,0-.73-.02-1.1-.06-4.27-.48-7.35-4.34-6.87-8.61,.19-1.67,1.01-3.16,2.32-4.2,1.31-1.05,2.95-1.52,4.62-1.33,2.78,.31,4.78,2.83,4.47,5.6-.12,1.09-.66,2.06-1.52,2.75-.86,.68-1.93,.99-3.02,.87-1.82-.21-3.14-1.86-2.94-3.68,.08-.72,.44-1.36,1-1.82,.57-.45,1.27-.65,1.99-.57,.13,.01,.22,.13,.21,.26-.01,.13-.13,.22-.26,.21-.59-.07-1.18,.1-1.64,.47-.47,.37-.76,.9-.83,1.5-.18,1.56,.95,2.98,2.52,3.16,1.99,.23,3.79-1.21,4.01-3.2,.28-2.52-1.53-4.8-4.05-5.08-1.54-.18-3.06,.26-4.27,1.23-1.21,.97-1.97,2.35-2.15,3.89-.45,4.01,2.44,7.63,6.45,8.08,2.44,.27,4.84-.42,6.77-1.95,1.92-1.53,3.13-3.72,3.4-6.16,.16-1.37-.83-2.65-2.16-2.81-1.05-.12-2.01,.63-2.14,1.68-.1,.82,.49,1.56,1.31,1.66,.63,.07,1.2-.38,1.27-1,.03-.23-.04-.46-.18-.64s-.35-.3-.58-.33c-.13-.02-.22-.13-.21-.26s.13-.23,.26-.21c.36,.04,.67,.22,.9,.5,.22,.28,.32,.63,.28,.99-.11,.89-.91,1.53-1.8,1.42-1.08-.13-1.85-1.11-1.72-2.18,.16-1.31,1.35-2.26,2.66-2.1,1.59,.19,2.77,1.72,2.57,3.34-.29,2.57-1.56,4.87-3.58,6.48-1.73,1.38-3.83,2.11-6.01,2.11Z"/><path class="cls-2" d="M61.85,52.19c-.6,0-1.19-.15-1.73-.44-.86-.46-1.49-1.23-1.76-2.17-.23-.76-.15-1.56,.23-2.26,.38-.7,1-1.21,1.76-1.43,.62-.18,1.27-.12,1.84,.19s.98,.82,1.17,1.44c.31,1.05-.28,2.16-1.33,2.47-.12,.04-.26-.03-.29-.16-.04-.13,.03-.26,.16-.3,.39-.12,.71-.37,.9-.73,.19-.35,.23-.76,.12-1.15-.15-.5-.48-.91-.94-1.16-.46-.25-.98-.3-1.48-.15-.64,.19-1.16,.62-1.48,1.21-.32,.59-.39,1.26-.19,1.9,.24,.81,.79,1.48,1.54,1.89,.75,.4,1.61,.49,2.42,.25,1.03-.31,1.88-1,2.39-1.95,.51-.95,.62-2.04,.31-3.07-.04-.13,.03-.26,.16-.29,.13-.04,.26,.03,.29,.16,.34,1.15,.22,2.37-.35,3.43-.57,1.06-1.52,1.83-2.67,2.18-.35,.1-.7,.15-1.05,.15Z"/><path class="cls-2" d="M64.22,35.38s-.05,0-.07-.01c-1.51-.5-2.73-1.55-3.44-2.96-.71-1.41-.83-3.02-.34-4.53,.83-2.51,3.54-3.88,6.05-3.05,.98,.32,1.78,1.01,2.25,1.94,.47,.93,.55,1.98,.22,2.96-.26,.8-.82,1.45-1.57,1.83-.75,.38-1.61,.44-2.41,.18-1.35-.44-2.08-1.9-1.64-3.24,.04-.12,.17-.19,.3-.15,.12,.04,.19,.17,.15,.3-.17,.53-.13,1.1,.12,1.6,.25,.5,.68,.87,1.22,1.05,.68,.22,1.41,.17,2.04-.15,.64-.32,1.11-.87,1.34-1.55,.28-.86,.22-1.79-.19-2.6-.41-.81-1.11-1.42-1.98-1.7-2.26-.74-4.71,.49-5.45,2.75-.46,1.38-.34,2.86,.31,4.17,.66,1.3,1.78,2.27,3.17,2.72,.12,.04,.19,.17,.15,.3-.03,.1-.13,.16-.23,.16Z"/><path class="cls-2" d="M68.77,41.12c-1.19,0-2.16-.97-2.16-2.16s.97-2.16,2.16-2.16,2.16,.97,2.16,2.16-.97,2.16-2.16,2.16Zm0-3.86c-.93,0-1.69,.76-1.69,1.69s.76,1.69,1.69,1.69,1.69-.76,1.69-1.69-.76-1.69-1.69-1.69Z"/></g><g><path class="cls-2" d="M78.15,59.5c-2.16,0-4.24-.7-5.95-2.02-2-1.54-3.26-3.74-3.54-6.2-.19-1.55,.98-3.01,2.55-3.19,1.3-.15,2.48,.75,2.64,2.01,.06,.5-.08,.99-.4,1.39-.32,.39-.78,.64-1.3,.7-.88,.1-1.68-.51-1.78-1.36-.04-.34,.06-.68,.28-.95,.22-.27,.54-.44,.89-.48,.13-.02,.24,.07,.26,.2,.02,.12-.08,.24-.21,.25-.23,.03-.43,.14-.57,.31s-.21,.39-.18,.61c.07,.6,.64,1.03,1.26,.96,.39-.05,.74-.23,.99-.53,.24-.3,.35-.67,.31-1.05-.12-1.01-1.07-1.73-2.11-1.61-1.32,.15-2.3,1.38-2.14,2.69,.27,2.34,1.47,4.43,3.37,5.9s4.28,2.13,6.7,1.87c3.96-.43,6.83-3.9,6.38-7.74-.17-1.47-.93-2.8-2.13-3.72-1.2-.93-2.7-1.35-4.22-1.18-2.49,.27-4.29,2.45-4.01,4.86,.11,.92,.58,1.75,1.33,2.33,.75,.58,1.69,.84,2.64,.74,1.55-.17,2.67-1.52,2.49-3.02-.07-.57-.36-1.08-.82-1.43-.46-.36-1.04-.52-1.63-.45-.13,.01-.25-.08-.26-.2-.01-.12,.08-.24,.21-.25,.71-.08,1.41,.12,1.97,.55,.56,.43,.91,1.05,.99,1.74,.2,1.75-1.1,3.33-2.91,3.52-2.22,.24-4.24-1.31-4.49-3.46-.31-2.66,1.67-5.06,4.42-5.36,1.65-.18,3.27,.27,4.57,1.27,1.3,1,2.11,2.43,2.3,4.02,.48,4.08-2.57,7.78-6.79,8.24-.36,.04-.73,.06-1.09,.06Z"/><path class="cls-2" d="M86.17,63.64c-.35,0-.7-.05-1.04-.15-1.14-.33-2.08-1.07-2.65-2.08-.57-1.01-.69-2.18-.35-3.28,.04-.12,.17-.19,.29-.15,.12,.04,.19,.16,.16,.28-.31,.99-.2,2.03,.31,2.94,.51,.91,1.35,1.57,2.37,1.86,.8,.23,1.65,.15,2.39-.24,.74-.39,1.28-1.03,1.52-1.8,.19-.61,.12-1.26-.19-1.82-.31-.56-.83-.97-1.46-1.15-1.02-.3-2.09,.27-2.4,1.25-.24,.76,.21,1.57,1,1.8,.12,.04,.19,.16,.16,.28-.04,.12-.17,.19-.29,.15-1.04-.3-1.63-1.36-1.32-2.37,.38-1.22,1.72-1.92,2.98-1.56,.75,.22,1.37,.7,1.74,1.37,.37,.67,.45,1.44,.23,2.16-.28,.89-.9,1.63-1.75,2.07-.53,.28-1.12,.42-1.71,.42Z"/><path class="cls-2" d="M83.82,47.55c-.1,0-.19-.06-.22-.16-.04-.12,.03-.25,.15-.29,1.37-.44,2.48-1.36,3.13-2.61,.65-1.25,.76-2.66,.31-3.99-.74-2.16-3.16-3.34-5.4-2.63-.86,.27-1.55,.85-1.96,1.63-.41,.78-.47,1.66-.19,2.49,.22,.65,.69,1.18,1.32,1.49,.63,.31,1.35,.36,2.02,.15,.53-.17,.95-.52,1.2-1,.25-.48,.29-1.02,.12-1.53-.04-.12,.03-.25,.15-.29,.12-.04,.26,.03,.3,.14,.21,.62,.16,1.29-.15,1.88-.31,.59-.83,1.02-1.48,1.23-.79,.25-1.64,.19-2.38-.17-.74-.36-1.3-.99-1.56-1.75-.32-.94-.24-1.95,.22-2.84,.46-.89,1.25-1.54,2.23-1.85,2.48-.79,5.17,.52,5.99,2.92,.49,1.44,.37,2.98-.34,4.33-.71,1.35-1.92,2.36-3.41,2.83-.02,0-.05,.01-.07,.01Z"/><path class="cls-2" d="M79.32,53.04c-1.18,0-2.14-.93-2.14-2.07s.96-2.07,2.14-2.07,2.14,.93,2.14,2.07-.96,2.07-2.14,2.07Zm0-3.69c-.92,0-1.67,.73-1.67,1.62s.75,1.62,1.67,1.62,1.67-.73,1.67-1.62-.75-1.62-1.67-1.62Z"/></g><path class="cls-2" d="M76.46,36.48c-.97,0-1.86-.63-2.15-1.6-.29-.97,.26-2,1.24-2.29,.12-.04,.26,.03,.29,.16,.04,.13-.03,.26-.16,.29-.72,.22-1.14,.98-.92,1.71,.28,.94,1.27,1.47,2.21,1.19,1.2-.36,1.89-1.63,1.53-2.83-.22-.74-.72-1.35-1.4-1.72-.68-.37-1.47-.45-2.21-.23-1.95,.58-3.06,2.64-2.47,4.59,.04,.13-.03,.26-.16,.3-.13,.04-.26-.03-.29-.16-.66-2.2,.6-4.52,2.79-5.18,.86-.26,1.78-.17,2.57,.26,.79,.43,1.37,1.14,1.63,2,.43,1.45-.39,2.99-1.84,3.42-.21,.06-.43,.09-.64,.09Z"/><path class="cls-2" d="M66.6,54.06c-1.11,0-2.01-.9-2.01-2.01s.9-2.01,2.01-2.01,2.01,.9,2.01,2.01-.9,2.01-2.01,2.01Zm0-3.54c-.85,0-1.54,.69-1.54,1.53s.69,1.53,1.54,1.53,1.53-.69,1.53-1.53-.69-1.53-1.53-1.53Z"/><path class="cls-2" d="M52.39,42.44c-2.9,0-5.41-2.19-5.75-5.14-.44-3.93,2.4-7.49,6.33-7.93,4.88-.55,9.3,2.98,9.85,7.86,.01,.13-.08,.25-.21,.26-.13,.01-.25-.08-.26-.21-.52-4.62-4.7-7.96-9.33-7.44-3.67,.41-6.32,3.74-5.91,7.41,.33,2.91,2.97,5.02,5.87,4.69,2.3-.26,3.97-2.34,3.71-4.65-.2-1.82-1.85-3.13-3.67-2.92-.69,.08-1.31,.42-1.74,.96-.43,.54-.63,1.22-.55,1.92,.13,1.12,1.13,1.92,2.25,1.8,.13-.01,.25,.08,.26,.21,.01,.13-.08,.25-.21,.26-1.37,.15-2.62-.84-2.78-2.21-.09-.82,.14-1.62,.65-2.26,.51-.64,1.25-1.05,2.06-1.14,2.07-.23,3.96,1.27,4.19,3.34,.29,2.56-1.56,4.88-4.12,5.17-.22,.02-.44,.04-.65,.04Z"/><path class="cls-2" d="M69.83,25.2c-1.11,0-2.01-.9-2.01-2.01s.9-2.01,2.01-2.01,2.01,.9,2.01,2.01-.9,2.01-2.01,2.01Zm0-3.54c-.85,0-1.54,.69-1.54,1.53s.69,1.53,1.54,1.53,1.53-.69,1.53-1.53-.69-1.53-1.53-1.53Z"/><g><path class="cls-2" d="M50.3,56.29c-2.18,0-4.28-.73-6.01-2.11-2.02-1.61-3.29-3.91-3.58-6.48-.19-1.62,.99-3.15,2.57-3.34,1.31-.16,2.51,.79,2.66,2.1,.06,.52-.08,1.04-.41,1.45-.32,.41-.79,.67-1.31,.74-.89,.11-1.69-.53-1.8-1.42-.04-.36,.06-.71,.28-.99,.22-.28,.54-.46,.9-.5,.13-.02,.25,.08,.26,.21,.02,.13-.08,.25-.21,.26-.23,.03-.44,.14-.58,.33s-.21,.41-.18,.64c.07,.63,.64,1.07,1.27,1,.4-.05,.75-.25,1-.56,.25-.31,.36-.7,.31-1.1-.12-1.05-1.08-1.81-2.14-1.68-1.33,.16-2.32,1.45-2.16,2.81,.27,2.44,1.48,4.63,3.41,6.16s4.32,2.22,6.77,1.95c4.01-.45,6.9-4.08,6.45-8.08-.17-1.54-.94-2.92-2.15-3.89-1.21-.97-2.73-1.41-4.27-1.23-2.52,.28-4.33,2.56-4.05,5.08,.11,.96,.59,1.83,1.34,2.43,.76,.6,1.71,.88,2.67,.77,1.56-.18,2.69-1.59,2.52-3.16-.07-.59-.36-1.13-.83-1.5-.47-.37-1.05-.54-1.64-.47-.13,.01-.25-.08-.26-.21-.01-.13,.08-.25,.21-.26,.72-.08,1.43,.12,1.99,.57,.57,.45,.92,1.1,1,1.82,.21,1.82-1.11,3.47-2.94,3.68-2.25,.25-4.28-1.37-4.54-3.62-.31-2.78,1.69-5.29,4.47-5.6,1.67-.19,3.3,.28,4.62,1.33,1.31,1.05,2.14,2.54,2.32,4.2,.48,4.27-2.6,8.13-6.87,8.61-.37,.04-.74,.06-1.1,.06Z"/><path class="cls-2" d="M58.4,60.62c-.35,0-.71-.05-1.05-.16-1.15-.34-2.1-1.12-2.67-2.18-.57-1.06-.7-2.28-.35-3.43,.04-.13,.17-.2,.3-.16,.13,.04,.2,.17,.16,.29-.31,1.03-.2,2.12,.31,3.07,.51,.95,1.36,1.64,2.39,1.95,.81,.24,1.67,.16,2.42-.25,.75-.4,1.29-1.07,1.54-1.89,.19-.64,.12-1.31-.19-1.9-.32-.59-.84-1.01-1.48-1.21-1.03-.31-2.12,.28-2.43,1.31-.24,.8,.22,1.64,1.01,1.88,.13,.04,.2,.17,.16,.3-.04,.12-.17,.2-.29,.16-1.05-.31-1.65-1.42-1.33-2.47,.38-1.28,1.73-2.01,3.01-1.63,.76,.23,1.38,.74,1.76,1.43,.38,.7,.46,1.5,.23,2.26-.28,.93-.91,1.7-1.76,2.17-.54,.29-1.13,.44-1.73,.44Z"/><path class="cls-2" d="M51.48,49.55c-1.19,0-2.16-.97-2.16-2.16s.97-2.16,2.16-2.16,2.16,.97,2.16,2.16-.97,2.16-2.16,2.16Zm0-3.86c-.93,0-1.69,.76-1.69,1.69s.76,1.69,1.69,1.69,1.69-.76,1.69-1.69-.76-1.69-1.69-1.69Z"/></g><path class="cls-2" d="M92.59,37.54c-.35,0-.71-.05-1.05-.16-1.15-.34-2.1-1.12-2.67-2.18-.57-1.06-.7-2.28-.35-3.43,.04-.13,.17-.2,.3-.16,.13,.04,.2,.17,.16,.29-.31,1.03-.2,2.12,.31,3.07,.51,.95,1.36,1.64,2.39,1.95,.81,.24,1.67,.16,2.42-.25,.75-.4,1.29-1.07,1.54-1.89,.19-.64,.12-1.31-.19-1.9-.32-.59-.84-1.01-1.48-1.21-1.03-.31-2.12,.28-2.43,1.31-.24,.8,.22,1.64,1.01,1.88,.13,.04,.2,.17,.16,.3-.04,.12-.17,.2-.29,.16-1.05-.31-1.65-1.42-1.33-2.47,.38-1.28,1.73-2.01,3.01-1.63,.76,.23,1.38,.74,1.76,1.43,.38,.7,.46,1.5,.23,2.26-.28,.93-.91,1.7-1.76,2.17-.54,.29-1.13,.44-1.73,.44Z"/><path class="cls-2" d="M88.26,45.93c1.6-1.48,3.64-2.37,5.85-2.53,2.58-.19,5.07,.64,7.03,2.32,1.24,1.06,1.41,2.98,.38,4.2-.85,1.01-2.37,1.13-3.38,.27-.4-.34-.64-.82-.68-1.34-.04-.52,.12-1.03,.46-1.43,.58-.68,1.6-.76,2.28-.18,.27,.23,.44,.56,.47,.92,.03,.36-.08,.7-.32,.98-.08,.1-.23,.11-.33,.03-.1-.09-.11-.23-.03-.33,.15-.18,.22-.4,.21-.63s-.13-.44-.3-.59c-.48-.41-1.2-.35-1.62,.13-.26,.3-.38,.69-.35,1.09,.03,.4,.22,.76,.52,1.02,.81,.69,2.02,.59,2.71-.22,.87-1.02,.72-2.64-.32-3.53-1.86-1.61-4.24-2.39-6.69-2.21s-4.68,1.31-6.29,3.16c-2.63,3.05-2.29,7.68,.76,10.31,1.17,1.01,2.67,1.51,4.22,1.39,1.55-.11,2.96-.82,3.97-2,1.66-1.92,1.44-4.82-.48-6.48-.73-.63-1.67-.94-2.64-.87-.97,.07-1.85,.51-2.48,1.25-1.03,1.19-.9,3,.3,4.03,.45,.39,1.03,.58,1.63,.54,.6-.04,1.14-.32,1.53-.77,.09-.1,.24-.11,.33-.02,.1,.09,.11,.23,.02,.33-.48,.55-1.13,.88-1.85,.93-.72,.05-1.42-.18-1.97-.65-1.39-1.2-1.54-3.31-.34-4.69,1.48-1.71,4.07-1.9,5.79-.42,2.12,1.83,2.35,5.03,.52,7.15-1.1,1.27-2.62,2.04-4.29,2.16-1.67,.12-3.29-.41-4.56-1.51-3.25-2.81-3.61-7.73-.81-10.98,.24-.28,.5-.55,.77-.79Z"/><path class="cls-2" d="M74.94,23.39c-1.53,0-2.77-1.24-2.77-2.77s1.24-2.77,2.77-2.77,2.77,1.24,2.77,2.77-1.24,2.77-2.77,2.77Zm0-4.89c-1.17,0-2.12,.95-2.12,2.12s.95,2.12,2.12,2.12,2.12-.95,2.12-2.12-.95-2.12-2.12-2.12Z"/><path class="cls-2" d="M91.75,36.89c.4,.03,.8,.12,1.18,.26,1.28,.48,2.3,1.4,2.86,2.61,.56,1.2,.6,2.54,.11,3.77-.05,.13-.21,.2-.35,.15-.14-.05-.21-.2-.16-.33,.44-1.1,.4-2.29-.1-3.37-.5-1.08-1.41-1.91-2.56-2.33-.91-.34-1.89-.32-2.78,.05-.88,.37-1.56,1.05-1.91,1.92-.27,.68-.25,1.42,.06,2.08,.31,.67,.87,1.18,1.58,1.44,1.15,.43,2.43-.11,2.87-1.21,.34-.85-.11-1.81-1-2.14-.14-.05-.21-.2-.16-.34,.05-.13,.21-.2,.35-.15,1.17,.43,1.75,1.69,1.31,2.81-.55,1.36-2.15,2.03-3.57,1.5-.85-.31-1.51-.92-1.88-1.72-.37-.79-.39-1.67-.07-2.48,.4-.99,1.18-1.77,2.19-2.2,.64-.27,1.33-.38,2.01-.32Z"/><path class="cls-2" d="M54.85,15.42c2.03-.79,4.26-.88,6.37-.22,2.47,.77,4.49,2.45,5.69,4.73,.77,1.44,.23,3.29-1.18,4.04-1.16,.63-2.62,.18-3.24-.98-.25-.46-.3-.99-.15-1.5,.15-.5,.49-.92,.95-1.16,.79-.42,1.77-.12,2.19,.67,.17,.32,.2,.68,.1,1.02-.1,.34-.34,.63-.65,.79-.11,.07-.26,.02-.32-.1-.06-.12-.02-.26,.1-.32,.2-.11,.35-.29,.42-.51s.04-.46-.07-.66c-.3-.56-.99-.77-1.55-.47-.35,.19-.61,.5-.72,.88-.12,.38-.08,.78,.11,1.14,.5,.94,1.67,1.29,2.6,.79,1.18-.63,1.63-2.19,.99-3.4-1.15-2.18-3.07-3.77-5.42-4.5s-4.84-.5-7.01,.65c-3.57,1.88-4.94,6.31-3.06,9.88,.72,1.37,1.94,2.38,3.42,2.84,1.48,.46,3.05,.32,4.42-.41,2.24-1.18,3.1-3.96,1.92-6.21-.45-.86-1.21-1.49-2.14-1.77-.93-.29-1.91-.2-2.76,.26-1.39,.73-1.93,2.46-1.2,3.86,.28,.53,.75,.92,1.32,1.09,.57,.18,1.18,.12,1.7-.16,.12-.06,.26-.02,.32,.1,.06,.12,.02,.26-.1,.32-.64,.34-1.37,.41-2.07,.19-.69-.21-1.26-.69-1.6-1.33-.86-1.62-.23-3.64,1.39-4.5,2-1.05,4.49-.28,5.54,1.72,1.3,2.47,.35,5.54-2.12,6.85-1.48,.78-3.18,.94-4.78,.44-1.6-.5-2.91-1.59-3.69-3.07-2-3.8-.54-8.52,3.26-10.52,.33-.17,.66-.33,1-.46Z"/><path class="cls-4" d="M65.64,81.97c.39-.99,.91-2.46,1.38-4.27,1.44-5.52,1.6-11.17,1.6-11.17h0s-.14-2.47-.59-4.43c-.49-2.13-1-4.73-3.04-6.03-.93-.59-2.26-.98-2.24-1.67,0-.37,.39-.7,.75-.83,1.06-.38,2.37,.89,2.75,1.25,2.82,2.73,2.18,6.71,3.5,6.94,.66,.11,1.45-.7,1.74-1.36,.47-1.06-.16-2.16,.17-2.33,.25-.13,.93,.33,1.25,1,.88,1.84-1.34,4.18-.75,4.74,.39,.37,1.65-.34,3.04-1.12,2.61-1.46,3.65-2.64,4.95-2.29,.16,.04,.69,.18,.75,.5,.14,.72-2.27,1.37-4.29,3.01,0,0-1.97,1.6-3.19,4.32-1.66,3.68-.22,8.82,3.15,13.23"/></g></g></g></svg>